<?xml version="1.0" encoding="UTF-8"?>
<!DOCTYPE svg PUBLIC "-//W3C//DTD SVG 1.1//EN" "http://www.w3.org/Graphics/SVG/1.1/DTD/svg11.dtd">
<!-- Creator: CorelDRAW 2017 -->
<svg xmlns="http://www.w3.org/2000/svg" xml:space="preserve" width="201px" height="78px" version="1.1" style="shape-rendering:geometricPrecision; text-rendering:geometricPrecision; image-rendering:optimizeQuality; fill-rule:evenodd; clip-rule:evenodd"
viewBox="0 0 201 78.14"
 xmlns:xlink="http://www.w3.org/1999/xlink">
 <defs>
  <style type="text/css">
   <![CDATA[
    .fil2 {fill:#4F5B64}
    .fil0 {fill:#4F5B64;fill-rule:nonzero}
    .fil1 {fill:url(#id0)}
   ]]>
  </style>
  <linearGradient id="id0" gradientUnits="userSpaceOnUse" x1="0" y1="39.07" x2="78.14" y2="39.07">
   <stop offset="0" style="stop-opacity:1; stop-color:#46B130"/>
   <stop offset="1" style="stop-opacity:1; stop-color:#95CC0F"/>
  </linearGradient>
 </defs>
 <g id="Layer_x0020_1">
  <metadata id="CorelCorpID_0Corel-Layer"/>
  <g id="_1959737364400">
   <path class="fil0" d="M97.45 31.6l1.65 0 -6.76 -14.78 -1.54 0 -6.76 14.78 1.63 0 1.77 -3.95 8.23 0 1.78 3.95zm-9.44 -5.21l3.55 -7.94 3.54 7.94 -7.09 0zm18.94 -5.98c-1.77,0 -3.29,0.76 -4.22,2.2l0 -6.68 -1.5 0 0 15.67 1.43 0 0 -2.19c0.91,1.49 2.45,2.3 4.29,2.3 3.17,0 5.53,-2.3 5.53,-5.66 0,-3.36 -2.36,-5.64 -5.53,-5.64zm-0.1 9.97c-2.37,0 -4.14,-1.74 -4.14,-4.33 0,-2.6 1.77,-4.33 4.14,-4.33 2.34,0 4.13,1.73 4.13,4.33 0,2.59 -1.79,4.33 -4.13,4.33zm17.33 -14.45l0 6.68c-0.93,-1.44 -2.45,-2.2 -4.22,-2.2 -3.17,0 -5.53,2.28 -5.53,5.64 0,3.36 2.36,5.66 5.53,5.66 1.83,0 3.38,-0.81 4.28,-2.3l0 2.19 1.44 0 0 -15.67 -1.5 0zm-4.1 14.45c-2.36,0 -4.13,-1.74 -4.13,-4.33 0,-2.6 1.77,-4.33 4.13,-4.33 2.35,0 4.12,1.73 4.12,4.33 0,2.59 -1.77,4.33 -4.12,4.33zm18.29 -9.89l0 5.83c0,2.54 -1.46,4.04 -3.78,4.04 -2.11,0 -3.34,-1.21 -3.34,-3.57l0 -6.3 -1.49 0 0 6.44c0,3.19 1.85,4.78 4.68,4.78 1.78,0 3.21,-0.78 3.99,-2.14l0 2.03 1.44 0 0 -11.11 -1.5 0zm5.7 11.11l1.5 0 0 -15.67 -1.5 0 0 15.67zm11.34 -11.19c-1.88,0 -3.34,0.74 -4.16,2.03l0 -6.51 -1.5 0 0 15.67 1.5 0 0 -5.83c0,-2.53 1.5,-4.01 3.89,-4.01 2.11,0 3.33,1.2 3.33,3.55l0 6.29 1.5 0 0 -6.44c0,-3.19 -1.86,-4.75 -4.56,-4.75zm12.52 0c-1.75,0 -3.4,0.55 -4.52,1.5l0.68 1.12c0.91,-0.8 2.26,-1.31 3.7,-1.31 2.06,0 3.14,1.03 3.14,2.93l0 0.68 -3.53 0c-3.18,0 -4.28,1.44 -4.28,3.15 0,1.92 1.54,3.23 4.05,3.23 1.84,0 3.15,-0.7 3.82,-1.84l0 1.73 1.44 0 0 -6.88c0,-2.87 -1.63,-4.31 -4.5,-4.31zm-0.53 10.11c-1.77,0 -2.8,-0.8 -2.8,-2.09 0,-1.14 0.69,-1.98 2.85,-1.98l3.48 0 0 1.81c-0.59,1.46 -1.84,2.26 -3.53,2.26zm17.85 -10.03l0 2.2c-0.91,-1.48 -2.45,-2.28 -4.29,-2.28 -3.17,0 -5.53,2.28 -5.53,5.64 0,3.38 2.36,5.66 5.53,5.66 1.78,0 3.3,-0.76 4.22,-2.2l0 6.19 1.5 0 0 -15.21 -1.43 0zm-4.16 9.89c-2.37,0 -4.14,-1.74 -4.14,-4.33 0,-2.58 1.77,-4.33 4.14,-4.33 2.34,0 4.12,1.75 4.12,4.33 0,2.59 -1.78,4.33 -4.12,4.33zm18.47 -9.89l0 2.2c-0.9,-1.48 -2.45,-2.28 -4.28,-2.28 -3.17,0 -5.53,2.28 -5.53,5.64 0,3.38 2.36,5.66 5.53,5.66 1.77,0 3.29,-0.76 4.22,-2.2l0 6.19 1.5 0 0 -15.21 -1.44 0zm-4.16 9.89c-2.36,0 -4.13,-1.74 -4.13,-4.33 0,-2.58 1.77,-4.33 4.13,-4.33 2.35,0 4.12,1.75 4.12,4.33 0,2.59 -1.77,4.33 -4.12,4.33zm-100.83 31.82c6.76,0 10.04,-3.38 10.04,-7.32 0,-8.69 -13.75,-5.67 -13.75,-10.04 0,-1.49 1.25,-2.71 4.49,-2.71 2.09,0 4.36,0.61 6.55,1.86l1.69 -4.15c-2.19,-1.39 -5.23,-2.1 -8.21,-2.1 -6.72,0 -9.96,3.35 -9.96,7.37 0,8.79 13.75,5.75 13.75,10.17 0,1.45 -1.32,2.53 -4.56,2.53 -2.84,0 -5.81,-1.01 -7.81,-2.46l-1.86 4.12c2.1,1.62 5.88,2.73 9.63,2.73zm26.46 -18.58l0 8.99c0,3.34 -1.76,4.9 -4.19,4.9 -2.33,0 -3.69,-1.35 -3.69,-4.4l0 -9.49 -5.27 0 0 10.27c0,5.61 3.21,8.18 7.77,8.18 2.23,0 4.26,-0.85 5.65,-2.43l0 2.16 5 0 0 -18.18 -5.27 0zm10.17 18.18l5.27 0 0 -25.07 -5.27 0 0 25.07zm27.97 -9.02c0,-5.85 -4.12,-9.43 -9.46,-9.43 -5.54,0 -9.7,3.92 -9.7,9.36 0,5.4 4.09,9.36 10.38,9.36 3.27,0 5.81,-1.02 7.5,-2.94l-2.81 -3.04c-1.25,1.18 -2.63,1.75 -4.56,1.75 -2.77,0 -4.69,-1.38 -5.2,-3.64l13.75 0c0.03,-0.44 0.1,-1.02 0.1,-1.42zm-9.43 -5.44c2.37,0 4.09,1.48 4.46,3.78l-8.95 0c0.37,-2.33 2.1,-3.78 4.49,-3.78z"/>
   <g>
    <path class="fil1" d="M36.44 30.17l5.91 6.96 -10.51 4.42 4.6 -11.38zm-11.16 -30.17l-25.28 63.44 50.56 -16.47 26.59 31.17 0.99 0 -31.85 -78.14 -21.01 0z"/>
    <path class="fil2" d="M50.82 54.6c2.1,0 3.81,1.71 3.81,3.81 0,2.1 -1.71,3.81 -3.81,3.81 -2.11,0 -3.81,-1.71 -3.81,-3.81 0,-2.1 1.7,-3.81 3.81,-3.81z"/>
   </g>
  </g>
 </g>
</svg>
