<svg id="Capa_1" enable-background="new 0 0 497 497" height="512" viewBox="0 0 497 497" width="512" xmlns="http://www.w3.org/2000/svg"><g><path d="m448.25 60c0-16.569-13.431-30-30-30h-282l-5 457 312.977-5c2.554-4.414 4.023-9.534 4.023-15z" fill="#edf6ff"/><path d="m136.25 467v-437c-8.284 0-15 6.716-15 15v437c0 8.284 6.716 15 15 15h282c11.102 0 20.789-6.036 25.977-15h-292.977c-8.284 0-15-6.716-15-15z" fill="#cde2ff"/><path d="m418.25 30c0-16.569-13.431-30-30-30h-282l-5 457 312.977-5c2.554-4.414 4.023-9.534 4.023-15z" fill="#94ccd4"/><path d="m106.25 437v-437c-8.284 0-15 6.716-15 15v437c0 8.284 6.716 15 15 15h282c11.102 0 20.789-6.036 25.977-15h-292.977c-8.284 0-15-6.716-15-15z" fill="#61aab8"/><g fill="#cde2ff"><path d="m121.25 57.5h-65c-4.142 0-7.5-3.358-7.5-7.5s3.358-7.5 7.5-7.5h65c4.142 0 7.5 3.358 7.5 7.5s-3.358 7.5-7.5 7.5z"/><path d="m121.25 424.5h-65c-4.142 0-7.5-3.358-7.5-7.5s3.358-7.5 7.5-7.5h65c4.142 0 7.5 3.358 7.5 7.5s-3.358 7.5-7.5 7.5z"/><path d="m121.25 372.071h-65c-4.142 0-7.5-3.358-7.5-7.5s3.358-7.5 7.5-7.5h65c4.142 0 7.5 3.358 7.5 7.5s-3.358 7.5-7.5 7.5z"/><path d="m121.25 319.643h-65c-4.142 0-7.5-3.358-7.5-7.5s3.358-7.5 7.5-7.5h65c4.142 0 7.5 3.358 7.5 7.5s-3.358 7.5-7.5 7.5z"/><path d="m121.25 267.214h-65c-4.142 0-7.5-3.358-7.5-7.5s3.358-7.5 7.5-7.5h65c4.142 0 7.5 3.358 7.5 7.5s-3.358 7.5-7.5 7.5z"/><path d="m121.25 214.786h-65c-4.142 0-7.5-3.358-7.5-7.5s3.358-7.5 7.5-7.5h65c4.142 0 7.5 3.358 7.5 7.5s-3.358 7.5-7.5 7.5z"/><path d="m121.25 162.357h-65c-4.142 0-7.5-3.358-7.5-7.5s3.358-7.5 7.5-7.5h65c4.142 0 7.5 3.358 7.5 7.5s-3.358 7.5-7.5 7.5z"/><path d="m121.25 109.929h-65c-4.142 0-7.5-3.358-7.5-7.5s3.358-7.5 7.5-7.5h65c4.142 0 7.5 3.358 7.5 7.5s-3.358 7.5-7.5 7.5z"/></g></g></svg>