<?xml version="1.0"?>
<svg xmlns="http://www.w3.org/2000/svg" enable-background="new 0 0 36 36" height="512px" viewBox="0 0 36 36" width="512px" class=""><g><g id="BG"><g><path d="m8.377 4.167c6.917 0 11.667-3.583 15-3.583s10.333 1.916 10.333 17.249-9.417 17.583-13.083 17.583c-17.167.001-24.5-31.249-12.25-31.249z" fill="#efefef" data-original="#EFEFEF" class=""/></g></g><g id="effect"><g><g><path d="m4.44 1.717h1v2h-1z" fill="#a4afc1" transform="matrix(.707 -.707 .707 .707 -.474 4.289)" data-original="#A4AFC1" class=""/></g><g><path d="m3.763 6.283h2v1h-2z" fill="#a4afc1" transform="matrix(.707 -.707 .707 .707 -3.402 5.355)" data-original="#A4AFC1" class=""/></g><g><path d="m7.828 2.217h2v1h-2z" fill="#a4afc1" transform="matrix(.707 -.707 .707 .707 .665 7.038)" data-original="#A4AFC1" class=""/></g></g><g><path d="m30.25 6.25c-.827 0-1.5-.673-1.5-1.5s.673-1.5 1.5-1.5 1.5.673 1.5 1.5-.673 1.5-1.5 1.5zm0-2c-.275 0-.5.225-.5.5s.225.5.5.5.5-.225.5-.5-.225-.5-.5-.5z" fill="#a4afc1" data-original="#A4AFC1" class=""/></g></g><g id="color"><g><circle cx="25" cy="21" fill="#f3f3f1" r="2.25" data-original="#F3F3F1" class=""/></g><g><path d="m18.427 18.002.889 3.248-3.992-2.04c-.425.068-.87.106-1.324.106-4.002 0-7.25-2.813-7.25-6.283s3.248-6.283 7.25-6.283 7.25 2.813 7.25 6.283c0 2.021-1.102 3.819-2.823 4.969z" fill="#2fdf84" data-original="#2FDF84" class="" style="fill:#3DAF33" data-old_color="#2fdf84"/></g><g><g><g><path d="m20.75 29.25v-1.5c0-1.105.895-2 2-2h4.5c1.105 0 2 .895 2 2v1.5z" fill="#f3f3f1" data-original="#F3F3F1" class=""/></g></g></g></g><g id="shadow"><g><path d="m25 21c0-.831.455-1.548 1.125-1.938-.332-.193-.713-.312-1.125-.312-1.243 0-2.25 1.007-2.25 2.25s1.007 2.25 2.25 2.25c.412 0 .793-.119 1.125-.312-.67-.39-1.125-1.107-1.125-1.938z" fill="#d5dbe1" data-original="#D5DBE1" class=""/></g><g><g><path d="m9 13.033c0-3.138 2.658-5.73 6.125-6.2-.368-.05-.741-.083-1.125-.083-4.002 0-7.25 2.813-7.25 6.283s3.248 6.283 7.25 6.283c.386 0 .762-.033 1.129-.083-3.469-.467-6.129-3.061-6.129-6.2z" fill="#00b871" data-original="#00B871" class="active-path" style="fill:#379D2E" data-old_color="#00b871"/></g><g><path d="m17.574 19.21c-.425.068-.87.106-1.324.106-.269 0-.534-.015-.795-.04l3.862 1.973-.366-1.336z" fill="#00b871" data-original="#00B871" class="active-path" style="fill:#379D2E" data-old_color="#00b871"/></g></g><g><path d="m25 25.75h-2.25c-1.105 0-2 .895-2 2v1.5h2.25v-1.5c0-1.105.895-2 2-2z" fill="#d5dbe1" data-original="#D5DBE1" class=""/></g></g><g id="_x31_.5"><g><g><path d="m25 24c-1.654 0-3-1.346-3-3s1.346-3 3-3 3 1.346 3 3-1.346 3-3 3zm0-4.5c-.827 0-1.5.673-1.5 1.5s.673 1.5 1.5 1.5 1.5-.673 1.5-1.5-.673-1.5-1.5-1.5z" data-original="#000000" class="" style="fill:#5F7D95" data-old_color="#000000"/></g></g><g><g><path d="m19.316 22c-.116 0-.233-.027-.341-.082l-3.779-1.932c-.397.054-.799.08-1.196.08-4.411 0-8-3.155-8-7.033s3.589-7.033 8-7.033 8 3.155 8 7.033c0 2.044-.981 3.939-2.711 5.273l.751 2.745c.078.287-.02.593-.25.78-.137.112-.305.169-.474.169zm-3.992-3.54c.118 0 .235.028.341.082l2.479 1.267-.44-1.608c-.085-.312.038-.643.307-.821 1.582-1.058 2.489-2.642 2.489-4.346 0-3.052-2.916-5.534-6.5-5.534s-6.5 2.482-6.5 5.533 2.916 5.533 6.5 5.533c.4 0 .806-.032 1.205-.097.04-.006.079-.009.119-.009z" data-original="#000000" class="" style="fill:#5F7D95" data-old_color="#000000"/></g></g><g><g><path d="m30 29.25h-1.5v-1.5c0-.689-.561-1.25-1.25-1.25h-4.5c-.689 0-1.25.561-1.25 1.25v1.5h-1.5v-1.5c0-1.517 1.233-2.75 2.75-2.75h4.5c1.517 0 2.75 1.233 2.75 2.75z" data-original="#000000" class="" style="fill:#5F7D95" data-old_color="#000000"/></g></g></g></g> </svg>
