<?xml version="1.0"?>
<svg xmlns="http://www.w3.org/2000/svg" enable-background="new 0 0 36 36" height="512px" viewBox="0 0 36 36" width="512px" class=""><g><g id="BG"><g><path d="m4.167 27.623c0-6.917-3.583-11.667-3.583-15s1.916-10.333 17.249-10.333 17.583 9.417 17.583 13.083c.001 17.167-31.249 24.5-31.249 12.25z" fill="#efefef" data-original="#EFEFEF"/></g></g><g id="effect"><g><g><path d="m15.051 4.72h2.001v1h-2.001z" fill="#a4afc1" transform="matrix(.707 -.707 .707 .707 1.01 12.879)" data-original="#A4AFC1"/></g><g><path d="m10.985 8.786h2v1h-2z" fill="#a4afc1" transform="matrix(.707 -.707 .707 .707 -3.056 11.195)" data-original="#A4AFC1"/></g><g><path d="m11.485 4.043h1v2h-1z" fill="#a4afc1" transform="matrix(.707 -.707 .707 .707 -.058 9.948)" data-original="#A4AFC1"/></g></g><g><path d="m29.852 7.5c-.827 0-1.5-.673-1.5-1.5s.673-1.5 1.5-1.5 1.5.673 1.5 1.5-.673 1.5-1.5 1.5zm0-2c-.275 0-.5.225-.5.5s.225.5.5.5.5-.225.5-.5-.225-.5-.5-.5z" fill="#a4afc1" data-original="#A4AFC1"/></g></g><g id="color"><g><circle cx="11" cy="21" fill="#f3f3f1" r="2.25" data-original="#F3F3F1"/></g><g><path d="m17.573 18.002-.889 3.248 3.992-2.04c.425.068.87.106 1.324.106 4.002 0 7.25-2.813 7.25-6.283s-3.248-6.283-7.25-6.283-7.25 2.813-7.25 6.283c0 2.021 1.102 3.819 2.823 4.969z" fill="#2fdf84" data-original="#2FDF84" class="" style="fill:#3DAF33" data-old_color="#2fdf84"/></g><g><g><g><path d="m15.25 29.25v-1.5c0-1.105-.895-2-2-2h-4.5c-1.105 0-2 .895-2 2v1.5z" fill="#f3f3f1" data-original="#F3F3F1"/></g></g></g></g><g id="shadow"><g><path d="m11 21c0-.831.455-1.548 1.125-1.938-.332-.193-.713-.312-1.125-.312-1.243 0-2.25 1.007-2.25 2.25s1.007 2.25 2.25 2.25c.412 0 .793-.119 1.125-.312-.67-.39-1.125-1.107-1.125-1.938z" fill="#d5dbe1" data-original="#D5DBE1" class=""/></g><g><g><path d="m19.299 19.914.523-1.911c-1.72-1.151-2.822-2.949-2.822-4.97 0-3.138 2.658-5.73 6.125-6.2-.368-.05-.741-.083-1.125-.083-4.002 0-7.25 2.813-7.25 6.283 0 2.02 1.102 3.818 2.823 4.969l-.889 3.248z" fill="#00b871" data-original="#00B871" class="" style="fill:#379D2E" data-old_color="#00b871"/></g><g><path d="m23.121 19.234c-.065-.009-.132-.013-.196-.024l-.131.067c.111-.01.219-.028.327-.043z" fill="#00b871" data-original="#00B871" class="" style="fill:#379D2E" data-old_color="#00b871"/></g></g><g><path d="m11 25.75h-2.25c-1.105 0-2 .895-2 2v1.5h2.25v-1.5c0-1.105.895-2 2-2z" fill="#d5dbe1" data-original="#D5DBE1" class=""/></g></g><g id="_x31_.5"><g><g><path d="m20.5 15.75c-.192 0-.384-.073-.53-.22l-2-2 1.061-1.061 1.47 1.47 3.47-3.47 1.061 1.061-4 4c-.148.147-.34.22-.532.22z" data-original="#000000" class="active-path" style="fill:#374957" data-old_color="#000000"/></g></g><g><g><path d="m11 24c-1.654 0-3-1.346-3-3s1.346-3 3-3 3 1.346 3 3-1.346 3-3 3zm0-4.5c-.827 0-1.5.673-1.5 1.5s.673 1.5 1.5 1.5 1.5-.673 1.5-1.5-.673-1.5-1.5-1.5z" data-original="#000000" class="active-path" style="fill:#374957" data-old_color="#000000"/></g></g><g><g><path d="m16.684 22c-.169 0-.337-.057-.474-.168-.23-.188-.328-.493-.25-.78l.751-2.745c-1.73-1.334-2.711-3.23-2.711-5.274 0-3.878 3.589-7.033 8-7.033s8 3.155 8 7.033-3.589 7.033-8 7.033c-.397 0-.799-.026-1.196-.08l-3.779 1.932c-.108.055-.225.082-.341.082zm5.316-14.5c-3.584 0-6.5 2.482-6.5 5.533 0 1.704.907 3.288 2.489 4.346.269.179.392.51.307.821l-.44 1.608 2.479-1.267c.142-.072.302-.099.46-.072.399.064.805.097 1.205.097 3.584 0 6.5-2.482 6.5-5.533s-2.916-5.533-6.5-5.533z" data-original="#000000" class="active-path" style="fill:#374957" data-old_color="#000000"/></g></g><g><g><path d="m16 29.25h-1.5v-1.5c0-.689-.561-1.25-1.25-1.25h-4.5c-.689 0-1.25.561-1.25 1.25v1.5h-1.5v-1.5c0-1.517 1.233-2.75 2.75-2.75h4.5c1.517 0 2.75 1.233 2.75 2.75z" data-original="#000000" class="active-path" style="fill:#374957" data-old_color="#000000"/></g></g></g></g> </svg>
