<?xml version="1.0" encoding="UTF-8"?>
<!DOCTYPE svg PUBLIC "-//W3C//DTD SVG 1.1//EN" "http://www.w3.org/Graphics/SVG/1.1/DTD/svg11.dtd">
<!-- Creator: CorelDRAW 2017 -->
<svg xmlns="http://www.w3.org/2000/svg" xml:space="preserve" width="136px" height="58px" version="1.1" style="shape-rendering:geometricPrecision; text-rendering:geometricPrecision; image-rendering:optimizeQuality; fill-rule:evenodd; clip-rule:evenodd"
viewBox="0 0 136 58"
 xmlns:xlink="http://www.w3.org/1999/xlink">
 <defs>
  <style type="text/css">
   <![CDATA[
    .fil2 {fill:none}
    .fil0 {fill:#8191AF}
    .fil1 {fill:#8191AF;fill-rule:nonzero}
   ]]>
  </style>
 </defs>
 <g id="Layer_x0020_1">
  <metadata id="CorelCorpID_0Corel-Layer"/>
  <path class="fil0" d="M129.48 27.99c-0.27,0 -0.52,0.04 -0.76,0.11 -0.24,0.07 -0.44,0.18 -0.63,0.34 -0.19,0.15 -0.33,0.35 -0.44,0.59 -0.1,0.24 -0.15,0.52 -0.15,0.84 0,0.45 0.16,0.9 0.49,1.35 0.33,0.44 0.74,0.91 1.24,1.39 0.49,0.48 1.02,0.98 1.6,1.49 0.57,0.52 1.1,1.06 1.59,1.63 0.49,0.58 0.91,1.19 1.24,1.84 0.33,0.65 0.49,1.34 0.49,2.08 0,0.84 -0.14,1.58 -0.42,2.23 -0.29,0.65 -0.69,1.2 -1.22,1.65 -0.53,0.45 -1.16,0.8 -1.91,1.04 -0.75,0.23 -1.58,0.35 -2.5,0.35 -0.8,0 -1.52,-0.11 -2.17,-0.34 -0.64,-0.22 -1.23,-0.5 -1.72,-0.83 -0.51,-0.34 -0.94,-0.69 -1.3,-1.05 -0.36,-0.38 -0.64,-0.71 -0.83,-1.01l0.6 -0.43c0.16,0.17 0.35,0.36 0.58,0.56 0.23,0.2 0.48,0.39 0.77,0.56 0.28,0.17 0.59,0.32 0.91,0.43 0.33,0.11 0.65,0.17 0.99,0.17 0.84,0 1.52,-0.21 2.06,-0.6 0.53,-0.41 0.8,-1 0.8,-1.79 0,-0.44 -0.15,-0.89 -0.44,-1.36 -0.29,-0.47 -0.66,-0.95 -1.09,-1.45 -0.45,-0.5 -0.92,-1.02 -1.43,-1.55 -0.51,-0.53 -0.99,-1.08 -1.43,-1.65 -0.44,-0.57 -0.8,-1.15 -1.09,-1.75 -0.29,-0.61 -0.44,-1.23 -0.44,-1.88 0,-0.73 0.15,-1.37 0.45,-1.91 0.29,-0.55 0.68,-1 1.18,-1.36 0.49,-0.36 1.05,-0.63 1.69,-0.81 0.63,-0.18 1.28,-0.27 1.95,-0.27 0.78,0 1.48,0.07 2.12,0.21 0.64,0.14 1.18,0.35 1.64,0.64 0.46,0.28 0.81,0.64 1.06,1.06 0.25,0.43 0.38,0.93 0.38,1.5 0,0.44 -0.15,0.82 -0.44,1.15 -0.29,0.32 -0.69,0.49 -1.21,0.49 -0.5,0 -0.88,-0.11 -1.14,-0.33 -0.26,-0.21 -0.39,-0.5 -0.39,-0.88 0,-0.24 0.06,-0.43 0.18,-0.57 0.12,-0.14 0.26,-0.25 0.41,-0.34 0.15,-0.09 0.28,-0.16 0.4,-0.22 0.13,-0.07 0.19,-0.15 0.19,-0.26 0,-0.32 -0.18,-0.58 -0.53,-0.77 -0.34,-0.19 -0.79,-0.29 -1.33,-0.29zm-13.14 0c-0.27,0 -0.52,0.04 -0.76,0.11 -0.24,0.07 -0.44,0.18 -0.63,0.34 -0.19,0.15 -0.33,0.35 -0.44,0.59 -0.1,0.24 -0.15,0.52 -0.15,0.84 0,0.45 0.16,0.9 0.49,1.35 0.33,0.44 0.74,0.91 1.24,1.39 0.49,0.48 1.02,0.98 1.6,1.49 0.57,0.52 1.1,1.06 1.59,1.63 0.5,0.58 0.91,1.19 1.24,1.84 0.33,0.65 0.49,1.34 0.49,2.08 0,0.84 -0.14,1.58 -0.42,2.23 -0.29,0.65 -0.69,1.2 -1.22,1.65 -0.53,0.45 -1.16,0.8 -1.91,1.04 -0.75,0.23 -1.58,0.35 -2.5,0.35 -0.8,0 -1.52,-0.11 -2.17,-0.34 -0.64,-0.22 -1.22,-0.5 -1.72,-0.83 -0.51,-0.34 -0.94,-0.69 -1.3,-1.05 -0.36,-0.38 -0.64,-0.71 -0.83,-1.01l0.6 -0.43c0.16,0.17 0.35,0.36 0.58,0.56 0.23,0.2 0.48,0.39 0.77,0.56 0.28,0.17 0.59,0.32 0.91,0.43 0.33,0.11 0.66,0.17 0.99,0.17 0.84,0 1.52,-0.21 2.06,-0.6 0.53,-0.41 0.8,-1 0.8,-1.79 0,-0.44 -0.15,-0.89 -0.44,-1.36 -0.29,-0.47 -0.65,-0.95 -1.09,-1.45 -0.45,-0.5 -0.92,-1.02 -1.43,-1.55 -0.51,-0.53 -0.99,-1.08 -1.43,-1.65 -0.44,-0.57 -0.8,-1.15 -1.09,-1.75 -0.29,-0.61 -0.44,-1.23 -0.44,-1.88 0,-0.73 0.15,-1.37 0.45,-1.91 0.29,-0.55 0.69,-1 1.18,-1.36 0.49,-0.36 1.05,-0.63 1.69,-0.81 0.63,-0.18 1.28,-0.27 1.95,-0.27 0.78,0 1.48,0.07 2.12,0.21 0.64,0.14 1.18,0.35 1.64,0.64 0.46,0.28 0.81,0.64 1.06,1.06 0.25,0.43 0.38,0.93 0.38,1.5 0,0.44 -0.15,0.82 -0.44,1.15 -0.29,0.32 -0.69,0.49 -1.21,0.49 -0.5,0 -0.88,-0.11 -1.14,-0.33 -0.26,-0.21 -0.39,-0.5 -0.39,-0.88 0,-0.24 0.06,-0.43 0.18,-0.57 0.12,-0.14 0.26,-0.25 0.41,-0.34 0.15,-0.09 0.28,-0.16 0.4,-0.22 0.13,-0.07 0.19,-0.15 0.19,-0.26 0,-0.32 -0.17,-0.58 -0.52,-0.77 -0.35,-0.19 -0.8,-0.29 -1.34,-0.29zm-14.08 5.14c0.15,-0.08 0.28,-0.17 0.38,-0.26 0.1,-0.09 0.18,-0.19 0.23,-0.32 0.06,-0.12 0.11,-0.27 0.13,-0.45 0.03,-0.18 0.05,-0.4 0.05,-0.67 0,-0.28 -0.04,-0.61 -0.1,-0.96 -0.06,-0.36 -0.17,-0.69 -0.32,-1 -0.15,-0.31 -0.34,-0.57 -0.57,-0.78 -0.24,-0.21 -0.51,-0.31 -0.84,-0.31 -0.42,0 -0.77,0.12 -1.07,0.37 -0.29,0.25 -0.54,0.57 -0.73,0.96 -0.19,0.4 -0.34,0.84 -0.45,1.35 -0.11,0.5 -0.19,1.01 -0.25,1.52 -0.06,0.51 -0.09,1 -0.1,1.47 -0.02,0.47 -0.02,0.86 -0.02,1.19l3.66 -2.11zm-3.49 3.53c0,0.38 0.05,0.78 0.17,1.21 0.11,0.44 0.26,0.88 0.48,1.32 0.2,0.43 0.46,0.86 0.77,1.25 0.31,0.41 0.66,0.76 1.06,1.08 0.4,0.3 0.84,0.55 1.33,0.74 0.48,0.19 1.02,0.28 1.59,0.28 0.41,0 0.79,-0.04 1.14,-0.14 0.34,-0.09 0.67,-0.22 0.97,-0.38 0.3,-0.17 0.59,-0.35 0.87,-0.57 0.27,-0.21 0.55,-0.44 0.83,-0.68l0.44 0.41c-0.27,0.37 -0.61,0.76 -1.03,1.18 -0.42,0.43 -0.92,0.84 -1.51,1.21 -0.59,0.38 -1.29,0.69 -2.07,0.94 -0.79,0.25 -1.68,0.38 -2.69,0.38 -1.01,0 -1.99,-0.19 -2.95,-0.55 -0.95,-0.37 -1.8,-0.91 -2.54,-1.64 -0.75,-0.73 -1.34,-1.65 -1.78,-2.73 -0.45,-1.09 -0.67,-2.37 -0.67,-3.83 0,-1.05 0.13,-2.01 0.39,-2.9 0.27,-0.88 0.63,-1.67 1.09,-2.38 0.46,-0.7 0.99,-1.33 1.6,-1.86 0.61,-0.53 1.25,-0.97 1.92,-1.33 0.67,-0.35 1.35,-0.62 2.06,-0.8 0.7,-0.18 1.38,-0.27 2.02,-0.27 0.86,0 1.61,0.1 2.25,0.28 0.63,0.19 1.16,0.44 1.59,0.75 0.42,0.31 0.73,0.68 0.94,1.08 0.21,0.41 0.31,0.85 0.31,1.3 0,0.54 -0.15,1.03 -0.47,1.47 -0.3,0.43 -0.72,0.81 -1.25,1.14l-6.86 4.04zm-13.42 -0.67c0,-1.46 -0.06,-2.63 -0.2,-3.5 -0.13,-0.88 -0.31,-1.54 -0.53,-2 -0.22,-0.46 -0.46,-0.76 -0.73,-0.91 -0.26,-0.14 -0.54,-0.21 -0.82,-0.21 -0.33,0 -0.63,0.09 -0.89,0.26 -0.26,0.18 -0.49,0.39 -0.68,0.62 -0.19,0.23 -0.35,0.46 -0.49,0.7 -0.13,0.23 -0.24,0.4 -0.33,0.52l0 11.61c0,0.15 -0.03,0.33 -0.07,0.55 -0.05,0.21 -0.16,0.41 -0.34,0.6 -0.18,0.19 -0.45,0.36 -0.8,0.49 -0.35,0.14 -0.84,0.2 -1.45,0.2 -0.62,0 -1.1,-0.07 -1.45,-0.22 -0.36,-0.14 -0.63,-0.31 -0.81,-0.51 -0.19,-0.19 -0.3,-0.4 -0.35,-0.61 -0.05,-0.21 -0.07,-0.37 -0.07,-0.5l0 -13.42c0,-0.33 -0.08,-0.62 -0.23,-0.87 -0.16,-0.25 -0.42,-0.38 -0.79,-0.38 -0.2,0 -0.37,0.03 -0.51,0.1 -0.14,0.07 -0.29,0.18 -0.45,0.3l-0.37 -0.43c0.27,-0.22 0.57,-0.44 0.9,-0.66 0.33,-0.21 0.69,-0.4 1.07,-0.56 0.38,-0.17 0.79,-0.3 1.23,-0.4 0.44,-0.1 0.9,-0.16 1.39,-0.16 0.75,0 1.34,0.13 1.76,0.38 0.42,0.25 0.72,0.54 0.92,0.89 0.2,0.35 0.32,0.71 0.36,1.09 0.03,0.37 0.06,0.69 0.06,0.95 0.42,-0.62 0.91,-1.17 1.46,-1.66 0.22,-0.21 0.46,-0.41 0.73,-0.6 0.27,-0.2 0.57,-0.38 0.87,-0.54 0.31,-0.15 0.63,-0.28 0.98,-0.37 0.34,-0.09 0.69,-0.14 1.05,-0.14 0.79,0 1.49,0.15 2.09,0.45 0.61,0.31 1.12,0.81 1.54,1.52 0.42,0.7 0.74,1.64 0.96,2.8 0.22,1.17 0.32,2.61 0.32,4.34 0,1.68 -0.14,3.14 -0.45,4.38 -0.3,1.24 -0.69,2.29 -1.18,3.16 -0.48,0.87 -1.04,1.58 -1.65,2.13 -0.61,0.55 -1.23,0.98 -1.86,1.3 -0.62,0.31 -1.22,0.53 -1.8,0.65 -0.57,0.12 -1.06,0.18 -1.49,0.2l-0.19 -0.72c0.35,-0.08 0.68,-0.2 0.97,-0.38 0.3,-0.17 0.57,-0.43 0.81,-0.76 0.24,-0.34 0.46,-0.77 0.64,-1.28 0.19,-0.51 0.35,-1.16 0.48,-1.94 0.13,-0.77 0.23,-1.69 0.3,-2.75 0.06,-1.06 0.09,-2.3 0.09,-3.71zm-14.6 7.09c0,0.15 -0.03,0.33 -0.07,0.55 -0.06,0.21 -0.18,0.41 -0.37,0.6 -0.19,0.19 -0.47,0.36 -0.83,0.49 -0.36,0.14 -0.85,0.2 -1.46,0.2 -0.61,0 -1.09,-0.07 -1.44,-0.22 -0.35,-0.14 -0.61,-0.31 -0.78,-0.51 -0.17,-0.19 -0.29,-0.4 -0.32,-0.61 -0.04,-0.21 -0.07,-0.37 -0.07,-0.5l0 -13.42c0,-0.33 -0.07,-0.62 -0.23,-0.87 -0.16,-0.25 -0.42,-0.38 -0.79,-0.38 -0.2,0 -0.36,0.03 -0.5,0.1 -0.14,0.07 -0.29,0.18 -0.46,0.3l-0.36 -0.43c0.27,-0.22 0.56,-0.44 0.9,-0.66 0.32,-0.21 0.68,-0.4 1.06,-0.56 0.38,-0.17 0.8,-0.3 1.24,-0.4 0.44,-0.1 0.9,-0.16 1.39,-0.16 0.75,0 1.34,0.1 1.75,0.31 0.42,0.2 0.73,0.45 0.92,0.74 0.2,0.3 0.32,0.61 0.36,0.95 0.04,0.33 0.06,0.63 0.06,0.89l0 13.59zm-13.45 -15.09c-0.26,0 -0.52,0.04 -0.75,0.11 -0.24,0.07 -0.45,0.18 -0.64,0.34 -0.18,0.15 -0.33,0.35 -0.43,0.59 -0.11,0.24 -0.16,0.52 -0.16,0.84 0,0.45 0.16,0.9 0.5,1.35 0.33,0.44 0.74,0.91 1.23,1.39 0.49,0.48 1.03,0.98 1.6,1.49 0.57,0.52 1.1,1.06 1.6,1.63 0.49,0.58 0.9,1.19 1.23,1.84 0.33,0.65 0.5,1.34 0.5,2.08 0,0.84 -0.14,1.58 -0.43,2.23 -0.28,0.65 -0.69,1.2 -1.21,1.65 -0.53,0.45 -1.17,0.8 -1.91,1.04 -0.75,0.23 -1.58,0.35 -2.5,0.35 -0.8,0 -1.53,-0.11 -2.17,-0.34 -0.65,-0.22 -1.23,-0.5 -1.73,-0.83 -0.5,-0.34 -0.94,-0.69 -1.3,-1.05 -0.35,-0.38 -0.63,-0.71 -0.83,-1.01l0.61 -0.43c0.15,0.17 0.34,0.36 0.57,0.56 0.23,0.2 0.49,0.39 0.77,0.56 0.29,0.17 0.59,0.32 0.92,0.43 0.32,0.11 0.65,0.17 0.99,0.17 0.83,0 1.52,-0.21 2.05,-0.6 0.53,-0.41 0.8,-1 0.8,-1.79 0,-0.44 -0.15,-0.89 -0.44,-1.36 -0.29,-0.47 -0.65,-0.95 -1.09,-1.45 -0.44,-0.5 -0.92,-1.02 -1.43,-1.55 -0.51,-0.53 -0.98,-1.08 -1.42,-1.65 -0.44,-0.57 -0.81,-1.15 -1.09,-1.75 -0.3,-0.61 -0.44,-1.23 -0.44,-1.88 0,-0.73 0.14,-1.37 0.44,-1.91 0.3,-0.55 0.69,-1 1.18,-1.36 0.49,-0.36 1.06,-0.63 1.69,-0.81 0.63,-0.18 1.28,-0.27 1.95,-0.27 0.78,0 1.49,0.07 2.13,0.21 0.63,0.14 1.18,0.35 1.63,0.64 0.46,0.28 0.82,0.64 1.07,1.06 0.25,0.43 0.37,0.93 0.37,1.5 0,0.44 -0.14,0.82 -0.43,1.15 -0.29,0.32 -0.7,0.49 -1.22,0.49 -0.5,0 -0.88,-0.11 -1.14,-0.33 -0.26,-0.21 -0.39,-0.5 -0.39,-0.88 0,-0.24 0.06,-0.43 0.18,-0.57 0.12,-0.14 0.26,-0.25 0.41,-0.34 0.15,-0.09 0.29,-0.16 0.41,-0.22 0.12,-0.07 0.18,-0.15 0.18,-0.26 0,-0.32 -0.17,-0.58 -0.52,-0.77 -0.34,-0.19 -0.8,-0.29 -1.34,-0.29zm-10.15 13.63c0,0.1 0.01,0.22 0.02,0.34 0.01,0.12 0.04,0.23 0.09,0.35 0.04,0.11 0.11,0.2 0.2,0.26 0.1,0.07 0.23,0.11 0.41,0.11 0.22,0 0.41,-0.08 0.58,-0.24 0.18,-0.15 0.34,-0.31 0.5,-0.47l0.41 0.36c-0.17,0.24 -0.39,0.52 -0.65,0.81 -0.26,0.29 -0.58,0.58 -0.95,0.84 -0.37,0.27 -0.79,0.49 -1.27,0.67 -0.47,0.18 -1.01,0.27 -1.61,0.27 -0.51,0 -0.96,-0.06 -1.33,-0.2 -0.38,-0.13 -0.7,-0.31 -0.96,-0.54 -0.26,-0.23 -0.45,-0.49 -0.58,-0.79 -0.13,-0.31 -0.19,-0.64 -0.19,-0.99l0 -0.78c-0.58,0.63 -1.19,1.17 -1.83,1.65 -0.27,0.21 -0.57,0.41 -0.89,0.61 -0.3,0.19 -0.63,0.37 -0.97,0.53 -0.33,0.16 -0.68,0.28 -1.04,0.37 -0.36,0.09 -0.72,0.14 -1.08,0.14 -0.69,0 -1.28,-0.12 -1.78,-0.37 -0.49,-0.25 -0.89,-0.58 -1.19,-0.99 -0.3,-0.4 -0.52,-0.86 -0.66,-1.37 -0.14,-0.51 -0.21,-1.02 -0.21,-1.53l0 -10.75c0,-0.11 -0.01,-0.22 -0.02,-0.35 0,-0.12 -0.03,-0.23 -0.08,-0.34 -0.05,-0.11 -0.12,-0.2 -0.21,-0.27 -0.09,-0.07 -0.22,-0.1 -0.4,-0.1 -0.21,0 -0.41,0.07 -0.58,0.23 -0.18,0.16 -0.34,0.32 -0.48,0.48l-0.44 -0.36c0.18,-0.25 0.39,-0.52 0.66,-0.82 0.26,-0.29 0.57,-0.57 0.95,-0.84 0.36,-0.27 0.79,-0.49 1.27,-0.67 0.48,-0.18 1.02,-0.27 1.61,-0.27 0.51,0 0.95,0.07 1.34,0.2 0.38,0.14 0.7,0.31 0.95,0.54 0.26,0.23 0.45,0.49 0.58,0.8 0.12,0.31 0.19,0.63 0.19,0.98l0 11.61c0,0.16 0.02,0.33 0.08,0.5 0.05,0.17 0.12,0.32 0.22,0.46 0.1,0.13 0.23,0.25 0.38,0.34 0.14,0.09 0.33,0.13 0.54,0.13 0.33,0 0.67,-0.09 1,-0.26 0.34,-0.18 0.64,-0.38 0.92,-0.62 0.28,-0.24 0.52,-0.48 0.73,-0.71 0.2,-0.23 0.35,-0.4 0.44,-0.51l0 -10.15c0,-0.11 -0.01,-0.22 -0.02,-0.35 -0.01,-0.12 -0.04,-0.23 -0.09,-0.34 -0.04,-0.11 -0.11,-0.2 -0.2,-0.27 -0.1,-0.07 -0.23,-0.1 -0.41,-0.1 -0.2,0 -0.4,0.07 -0.58,0.23 -0.18,0.16 -0.34,0.32 -0.47,0.48l-0.44 -0.36c0.18,-0.25 0.39,-0.52 0.65,-0.82 0.26,-0.29 0.58,-0.57 0.95,-0.84 0.37,-0.27 0.8,-0.49 1.28,-0.67 0.48,-0.18 1.02,-0.27 1.6,-0.27 0.51,0 0.96,0.07 1.34,0.2 0.38,0.14 0.7,0.31 0.96,0.54 0.25,0.23 0.44,0.49 0.57,0.8 0.13,0.31 0.19,0.63 0.19,0.98l0 12.5zm-30.33 -22.96c3.37,0 5.84,0.52 7.42,1.57 1.58,1.05 2.37,2.58 2.37,4.58 0,0.5 -0.05,0.96 -0.16,1.38 -0.12,0.41 -0.25,0.79 -0.43,1.14 -0.17,0.33 -0.37,0.64 -0.59,0.9 -0.22,0.27 -0.45,0.5 -0.68,0.7 -0.54,0.48 -1.16,0.85 -1.84,1.11l0 0.26c1.07,0.13 2.05,0.46 2.9,0.98 0.36,0.22 0.71,0.5 1.06,0.82 0.35,0.33 0.66,0.73 0.93,1.2 0.27,0.47 0.49,1.01 0.66,1.64 0.17,0.61 0.25,1.33 0.25,2.13 0,1.21 -0.22,2.3 -0.66,3.28 -0.44,0.97 -1.09,1.8 -1.96,2.48 -0.87,0.67 -1.95,1.19 -3.25,1.55 -1.3,0.36 -2.81,0.54 -4.52,0.54 -1.59,0 -2.88,-0.1 -3.87,-0.3 -1,-0.19 -1.78,-0.48 -2.34,-0.86 -0.55,-0.37 -0.93,-0.83 -1.13,-1.36 -0.21,-0.53 -0.31,-1.13 -0.31,-1.81l0 -19.01c0,-0.64 -0.44,-0.96 -1.31,-0.96 -0.65,0 -1.29,0.1 -1.94,0.29 -0.66,0.19 -1.25,0.46 -1.78,0.78 -0.53,0.33 -0.95,0.73 -1.29,1.19 -0.34,0.45 -0.51,0.95 -0.51,1.48 0,0.37 0.05,0.67 0.15,0.88 0.1,0.23 0.21,0.39 0.34,0.5 0.13,0.11 0.26,0.18 0.39,0.21 0.13,0.03 0.23,0.04 0.29,0.04 0.29,0 0.53,-0.05 0.71,-0.14 0.19,-0.1 0.35,-0.21 0.5,-0.31 0.16,-0.12 0.3,-0.22 0.43,-0.32 0.14,-0.1 0.29,-0.15 0.46,-0.15 0.14,0 0.29,0.03 0.44,0.1 0.16,0.06 0.3,0.16 0.44,0.31 0.13,0.13 0.24,0.32 0.34,0.54 0.09,0.23 0.14,0.5 0.14,0.83 0,0.46 -0.09,0.86 -0.27,1.19 -0.18,0.34 -0.41,0.62 -0.7,0.85 -0.28,0.22 -0.61,0.39 -0.97,0.5 -0.37,0.11 -0.73,0.17 -1.09,0.17 -0.55,0 -1.06,-0.1 -1.5,-0.29 -0.45,-0.19 -0.83,-0.45 -1.14,-0.79 -0.31,-0.33 -0.55,-0.73 -0.71,-1.18 -0.16,-0.45 -0.24,-0.93 -0.24,-1.44 0,-0.97 0.17,-1.81 0.54,-2.55 0.35,-0.73 0.86,-1.37 1.51,-1.9 0.66,-0.54 1.45,-0.98 2.36,-1.33 0.91,-0.36 1.93,-0.64 3.04,-0.84 1.11,-0.21 2.3,-0.36 3.57,-0.45 1.27,-0.09 2.59,-0.13 3.95,-0.13zm-0.34 22.89c0,0.26 0.02,0.52 0.08,0.76 0.05,0.23 0.15,0.44 0.31,0.61 0.16,0.17 0.37,0.32 0.64,0.42 0.27,0.1 0.63,0.16 1.07,0.16 0.64,0 1.22,-0.19 1.76,-0.55 0.53,-0.37 0.99,-0.83 1.37,-1.41 0.38,-0.58 0.68,-1.22 0.89,-1.93 0.2,-0.71 0.31,-1.42 0.31,-2.13 0,-1.05 -0.14,-1.98 -0.43,-2.79 -0.28,-0.8 -0.68,-1.48 -1.19,-2.04 -0.51,-0.55 -1.11,-0.99 -1.8,-1.3 -0.7,-0.3 -1.45,-0.48 -2.26,-0.52l0.34 -0.89c0.51,0.02 1,-0.04 1.46,-0.21 0.47,-0.16 0.87,-0.45 1.23,-0.85 0.35,-0.41 0.63,-0.95 0.84,-1.64 0.21,-0.69 0.32,-1.56 0.32,-2.6 0,-0.71 -0.09,-1.35 -0.27,-1.91 -0.17,-0.57 -0.4,-1.05 -0.68,-1.44 -0.29,-0.38 -0.61,-0.68 -0.99,-0.89 -0.38,-0.21 -0.76,-0.32 -1.16,-0.32 -0.24,0 -0.48,0.03 -0.7,0.09 -0.23,0.06 -0.43,0.16 -0.59,0.3 -0.17,0.14 -0.31,0.32 -0.4,0.55 -0.1,0.22 -0.15,0.51 -0.15,0.84l0 19.69z"/>
  <path class="fil0" d="M64.88 22.64c0,-0.33 0.07,-0.63 0.21,-0.93 0.15,-0.3 0.35,-0.55 0.61,-0.77 0.27,-0.22 0.56,-0.4 0.91,-0.52 0.34,-0.13 0.71,-0.19 1.12,-0.19 0.39,0 0.76,0.06 1.1,0.19 0.34,0.12 0.64,0.3 0.9,0.52 0.25,0.22 0.45,0.47 0.6,0.77 0.14,0.3 0.21,0.6 0.21,0.93 0,0.34 -0.07,0.65 -0.21,0.94 -0.15,0.29 -0.35,0.54 -0.6,0.76 -0.26,0.21 -0.56,0.38 -0.9,0.51 -0.34,0.13 -0.71,0.19 -1.1,0.19 -0.41,0 -0.78,-0.06 -1.12,-0.19 -0.35,-0.13 -0.64,-0.3 -0.91,-0.51 -0.26,-0.22 -0.46,-0.47 -0.61,-0.76 -0.14,-0.29 -0.21,-0.6 -0.21,-0.94z"/>
  <g id="_2489015418128">
   <polygon class="fil1" points="126.61,23.84 134.15,16.3 134.15,14.38 124.63,23.84 126.61,23.84 "/>
   <polygon class="fil1" points="122.47,23.84 134.15,12.16 134.15,10.18 120.49,23.84 122.47,23.84 "/>
   <polygon class="fil1" points="116.34,23.84 118.32,23.84 134.15,8.01 134.15,6.03 116.34,23.84 "/>
   <path class="fil1" d="M129.33 23.84c0.62,0 1.24,-0.12 1.73,-0.31l2.72 -2.72c0.19,-0.55 0.31,-1.11 0.31,-1.73l0 -0.55 -5.32 5.31 0.56 0 0 0z"/>
   <path class="fil1" d="M133.23 2.82l-20.16 20.16c0.37,0.31 0.86,0.49 1.29,0.68l19.55 -19.54c-0.19,-0.5 -0.37,-0.93 -0.68,-1.3l0 0z"/>
   <polygon class="fil1" points="118.63,0.84 111.09,8.32 111.09,10.3 120.61,0.78 118.63,0.78 "/>
   <polygon class="fil1" points="122.78,0.84 111.09,12.46 111.09,14.44 124.75,0.78 122.78,0.78 "/>
   <polygon class="fil1" points="126.92,0.84 111.09,16.67 111.09,18.65 128.9,0.84 126.92,0.84 "/>
   <path class="fil1" d="M130.82 1.02l-19.49 19.55c0.19,0.49 0.38,0.92 0.69,1.3l20.16 -20.17c-0.44,-0.24 -0.87,-0.49 -1.36,-0.68z"/>
   <path class="fil1" d="M115.85 0.84c-0.62,0 -1.24,0.12 -1.73,0.31l-2.72 2.72c-0.19,0.56 -0.31,1.11 -0.31,1.73l0 0.56 5.38 -5.38 -0.62 0 0 0.06z"/>
  </g>
  <path class="fil1" d="M95.22 57.13l1.72 0 -3.16 -7.09 -1.62 0 -3.16 7.09 1.68 0 0.63 -1.52 3.29 0 0.62 1.52zm-3.38 -2.77l1.12 -2.71 1.12 2.71 -2.24 0z"/>
  <polygon id="1" class="fil1" points="103.03,51.36 103.03,50.04 97.68,50.04 97.68,57.13 99.32,57.13 99.32,54.55 102.6,54.55 102.6,53.23 99.32,53.23 99.32,51.36 "/>
  <polygon id="2" class="fil1" points="109.5,51.36 109.5,50.04 104.15,50.04 104.15,57.13 105.79,57.13 105.79,54.55 109.06,54.55 109.06,53.23 105.79,53.23 105.79,51.36 "/>
  <path id="3" class="fil1" d="M115.61 57.13l1.72 0 -3.17 -7.09 -1.62 0 -3.15 7.09 1.68 0 0.62 -1.52 3.29 0 0.63 1.52zm-3.39 -2.77l1.12 -2.71 1.13 2.71 -2.25 0z"/>
  <polygon id="4" class="fil1" points="118.07,57.13 119.71,57.13 119.71,50.04 118.07,50.04 "/>
  <path id="5" class="fil1" d="M127.66 57.13l-1.59 -2.28c0.92,-0.39 1.46,-1.17 1.46,-2.24 0,-1.58 -1.19,-2.57 -3.08,-2.57l-3.06 0 0 7.09 1.64 0 0 -1.98 1.42 0 0.08 0 1.37 1.98 1.76 0zm-1.79 -4.52c0,0.77 -0.51,1.24 -1.51,1.24l-1.33 0 0 -2.47 1.33 0c1,0 1.51,0.45 1.51,1.23z"/>
  <path id="6" class="fil1" d="M131.15 57.25c2.02,0 3,-1.01 3,-2.2 0,-2.6 -4.11,-1.69 -4.11,-3 0,-0.45 0.37,-0.81 1.34,-0.81 0.63,0 1.31,0.18 1.97,0.55l0.5 -1.24c-0.66,-0.41 -1.57,-0.63 -2.46,-0.63 -2.01,0 -2.98,1 -2.98,2.21 0,2.63 4.12,1.72 4.12,3.05 0,0.43 -0.4,0.75 -1.37,0.75 -0.85,0 -1.74,-0.3 -2.34,-0.73l-0.55 1.23c0.62,0.48 1.76,0.82 2.88,0.82z"/>
  <rect class="fil2" width="136" height="58"/>
 </g>
</svg>
