<?xml version="1.0" encoding="UTF-8"?>
<!DOCTYPE svg PUBLIC "-//W3C//DTD SVG 1.1//EN" "http://www.w3.org/Graphics/SVG/1.1/DTD/svg11.dtd">
<!-- Creator: CorelDRAW 2017 -->
<svg xmlns="http://www.w3.org/2000/svg" xml:space="preserve" width="136px" height="58px" version="1.1" style="shape-rendering:geometricPrecision; text-rendering:geometricPrecision; image-rendering:optimizeQuality; fill-rule:evenodd; clip-rule:evenodd"
viewBox="0 0 136 57.85"
 xmlns:xlink="http://www.w3.org/1999/xlink">
 <defs>
  <style type="text/css">
   <![CDATA[
    .fil1 {fill:none}
    .fil0 {fill:#8191AF;fill-rule:nonzero}
   ]]>
  </style>
 </defs>
 <g id="Layer_x0020_1">
  <metadata id="CorelCorpID_0Corel-Layer"/>
  <g id="_2916233511792">
   <path class="fil0" d="M81.23 18.34c-1.91,0 -3.55,0.65 -4.64,1.85l0 -1.64 -3.89 0 0 14.02 4.07 0 0 -6.93c0,-2.58 1.41,-3.78 3.36,-3.78 1.8,0 2.84,1.04 2.84,3.31l0 7.4 4.07 0 0 -8.03c0,-4.27 -2.5,-6.2 -5.81,-6.2zm-15.18 0.21l0 1.8c-1.07,-1.36 -2.69,-2.01 -4.64,-2.01 -3.88,0 -7.01,2.68 -7.01,6.78 0,4.09 3.13,6.77 7.01,6.77 1.82,0 3.36,-0.57 4.43,-1.74l0 0.6c0,2.52 -1.25,3.83 -4.12,3.83 -1.8,0 -3.75,-0.63 -4.95,-1.59l-1.62 2.92c1.65,1.27 4.23,1.93 6.88,1.93 5.06,0 7.88,-2.4 7.88,-7.61l0 -11.68 -3.86 0zm-3.83 10.01c-2.14,0 -3.7,-1.38 -3.7,-3.44 0,-2.06 1.56,-3.44 3.7,-3.44 2.13,0 3.67,1.38 3.67,3.44 0,2.06 -1.54,3.44 -3.67,3.44zm-11.61 -11.97c1.51,0 2.53,-0.99 2.53,-2.34 0,-1.25 -1.02,-2.19 -2.53,-2.19 -1.51,0 -2.53,0.99 -2.53,2.27 0,1.27 1.02,2.26 2.53,2.26zm-2.03 15.98l4.07 0 0 -14.02 -4.07 0 0 14.02zm-8.14 0.21c4.2,0 6.62,-1.85 6.62,-4.46 0,-5.52 -8.47,-3.2 -8.47,-5.6 0,-0.73 0.78,-1.3 2.61,-1.3 1.27,0 2.65,0.26 4.04,1.04l1.35 -2.9c-1.33,-0.78 -3.47,-1.22 -5.39,-1.22 -4.1,0 -6.49,1.88 -6.49,4.53 0,5.61 8.47,3.26 8.47,5.56 0,0.78 -0.71,1.27 -2.58,1.27 -1.72,0 -3.63,-0.54 -4.88,-1.35l-1.35 2.92c1.3,0.86 3.7,1.51 6.07,1.51zm-6.44 -7.17c0,-4.51 -3.18,-7.27 -7.3,-7.27 -4.28,0 -7.48,3.02 -7.48,7.22 0,4.17 3.15,7.22 8,7.22 2.53,0 4.48,-0.78 5.79,-2.27l-2.17 -2.34c-0.96,0.91 -2.03,1.35 -3.52,1.35 -2.13,0 -3.62,-1.07 -4.01,-2.81l10.61 0c0.02,-0.34 0.08,-0.79 0.08,-1.1zm-7.28 -4.19c1.83,0 3.16,1.14 3.44,2.91l-6.9 0c0.28,-1.79 1.61,-2.91 3.46,-2.91zm-26.72 11.15l8.29 0c5.97,0 10.06,-3.6 10.06,-9.12 0,-5.53 -4.09,-9.12 -10.06,-9.12l-8.29 0 0 18.24zm4.22 -3.47l0 -11.31 3.86 0c3.62,0 6,2.17 6,5.66 0,3.49 -2.38,5.65 -6,5.65l-3.86 0z"/>
   <path class="fil0" d="M102.32 23.16c1.67,-0.68 2.79,-2.06 2.79,-4.14 0,-2.97 -2.35,-4.7 -6.41,-4.7l-7.88 0 0 18.25 8.4 0c4.56,0 6.85,-1.77 6.85,-4.87 0,-2.48 -1.41,-4.02 -3.75,-4.54zm-3.75 -7.24c2.91,0 4.61,1.12 4.61,3.31 0,2.18 -1.7,3.31 -4.61,3.31l-5.82 0 0 -6.62 5.82 0zm0.62 15.06l-6.44 0 0 -6.85 6.44 0c3.21,0 4.95,1.04 4.95,3.41 0,2.4 -1.74,3.44 -4.95,3.44z"/>
   <path class="fil0" d="M113.97 18.76c-2.16,0 -4.2,0.67 -5.58,1.85l0.84 1.38c1.12,-0.99 2.79,-1.62 4.56,-1.62 2.55,0 3.88,1.28 3.88,3.63l0 0.83 -4.35 0c-3.94,0 -5.29,1.77 -5.29,3.88 0,2.38 1.9,3.99 5,3.99 2.27,0 3.89,-0.86 4.72,-2.27l0 2.14 1.77 0 0 -8.5c0,-3.54 -2,-5.31 -5.55,-5.31zm-0.65 12.48c-2.19,0 -3.47,-0.99 -3.47,-2.58 0,-1.41 0.86,-2.45 3.52,-2.45l4.3 0 0 2.24c-0.73,1.8 -2.27,2.79 -4.35,2.79z"/>
   <path class="fil0" d="M135.66 25.72c0,-4.12 -2.79,-6.96 -6.65,-6.96 -3.86,0 -6.7,2.89 -6.7,6.96 0,4.06 2.92,6.98 7.2,6.98 2.16,0 4.06,-0.78 5.29,-2.24l-1.04 -1.2c-1.05,1.2 -2.53,1.8 -4.2,1.8 -3,0 -5.19,-1.9 -5.4,-4.77l11.47 0c0,-0.21 0.03,-0.42 0.03,-0.57zm-6.65 -5.37c2.69,0 4.64,1.87 4.88,4.56l-9.73 0c0.24,-2.69 2.19,-4.56 4.85,-4.56z"/>
   <path class="fil0" d="M82.94 39.14c-0.76,0 -1.42,0.33 -1.82,0.95l0 -2.89 -0.65 0 0 6.78 0.62 0 0 -0.95c0.39,0.64 1.06,0.99 1.85,0.99 1.37,0 2.39,-0.99 2.39,-2.44 0,-1.46 -1.02,-2.44 -2.39,-2.44zm-0.04 4.31c-1.03,0 -1.79,-0.75 -1.79,-1.87 0,-1.13 0.76,-1.88 1.79,-1.88 1.01,0 1.79,0.75 1.79,1.88 0,1.12 -0.78,1.87 -1.79,1.87zm6.7 -4.28l-1.81 4.08 -1.81 -4.08 -0.67 0 2.14 4.8 -0.21 0.46c-0.27,0.6 -0.56,0.81 -0.99,0.81 -0.35,0 -0.64,-0.13 -0.88,-0.37l-0.3 0.48c0.29,0.3 0.72,0.44 1.17,0.44 0.68,0 1.19,-0.3 1.6,-1.24l2.4 -5.38 -0.64 0zm8.43 -1.58l0 2.84 -4 0 0 -2.84 -0.67 0 0 6.39 0.67 0 0 -2.95 4 0 0 2.95 0.67 0 0 -6.39 -0.67 0zm3.97 1.55c-0.75,0 -1.47,0.24 -1.95,0.65l0.29 0.48c0.39,-0.35 0.98,-0.57 1.6,-0.57 0.89,0 1.36,0.45 1.36,1.27l0 0.29 -1.52 0c-1.38,0 -1.86,0.63 -1.86,1.36 0,0.84 0.67,1.4 1.75,1.4 0.8,0 1.36,-0.3 1.66,-0.79l0 0.75 0.62 0 0 -2.98c0,-1.24 -0.71,-1.86 -1.95,-1.86zm-0.22 4.37c-0.77,0 -1.22,-0.35 -1.22,-0.9 0,-0.5 0.3,-0.86 1.23,-0.86l1.51 0 0 0.78c-0.26,0.63 -0.79,0.98 -1.52,0.98zm7.39 -4.34l0 0.95c-0.39,-0.64 -1.06,-0.98 -1.85,-0.98 -1.37,0 -2.4,0.98 -2.4,2.44 0,1.46 1.03,2.44 2.4,2.44 0.76,0 1.42,-0.33 1.82,-0.95l0 2.68 0.65 0 0 -6.58 -0.62 0zm-1.8 4.28c-1.02,0 -1.79,-0.75 -1.79,-1.87 0,-1.12 0.77,-1.88 1.79,-1.88 1.01,0 1.78,0.76 1.78,1.88 0,1.12 -0.77,1.87 -1.78,1.87zm7.67 -4.28l0 0.95c-0.39,-0.64 -1.06,-0.98 -1.85,-0.98 -1.37,0 -2.4,0.98 -2.4,2.44 0,1.46 1.03,2.44 2.4,2.44 0.76,0 1.42,-0.33 1.82,-0.95l0 2.68 0.65 0 0 -6.58 -0.62 0zm-1.8 4.28c-1.02,0 -1.79,-0.75 -1.79,-1.87 0,-1.12 0.77,-1.88 1.79,-1.88 1.01,0 1.78,0.76 1.78,1.88 0,1.12 -0.77,1.87 -1.78,1.87zm9.9 -4.31c-0.87,0 -1.56,0.39 -1.9,1.01 -0.29,-0.67 -0.91,-1.01 -1.71,-1.01 -0.8,0 -1.42,0.34 -1.76,0.91l0 -0.88 -0.62 0 0 4.81 0.65 0 0 -2.52c0,-1.1 0.63,-1.74 1.6,-1.74 0.88,0 1.39,0.52 1.39,1.54l0 2.72 0.65 0 0 -2.52c0,-1.1 0.62,-1.74 1.61,-1.74 0.86,0 1.37,0.52 1.37,1.54l0 2.72 0.65 0 0 -2.79c0,-1.38 -0.76,-2.05 -1.93,-2.05zm5.05 0c-0.75,0 -1.47,0.24 -1.95,0.65l0.29 0.48c0.4,-0.35 0.98,-0.57 1.6,-0.57 0.9,0 1.36,0.45 1.36,1.27l0 0.29 -1.52 0c-1.38,0 -1.86,0.63 -1.86,1.36 0,0.84 0.67,1.4 1.76,1.4 0.79,0 1.36,-0.3 1.65,-0.79l0 0.75 0.62 0 0 -2.98c0,-1.24 -0.7,-1.86 -1.95,-1.86zm-0.22 4.37c-0.77,0 -1.22,-0.35 -1.22,-0.9 0,-0.5 0.3,-0.86 1.23,-0.86l1.51 0 0 0.78c-0.25,0.63 -0.79,0.98 -1.52,0.98zm6.06 -4.37c-0.83,0 -1.48,0.34 -1.83,0.92l0 -0.89 -0.62 0 0 4.81 0.65 0 0 -2.52c0,-1.1 0.65,-1.74 1.68,-1.74 0.91,0 1.44,0.52 1.44,1.54l0 2.72 0.65 0 0 -2.79c0,-1.38 -0.8,-2.05 -1.97,-2.05z"/>
  </g>
  <rect class="fil1" width="136" height="57.85"/>
 </g>
</svg>
