<?xml version="1.0" encoding="UTF-8"?>
<!DOCTYPE svg PUBLIC "-//W3C//DTD SVG 1.1//EN" "http://www.w3.org/Graphics/SVG/1.1/DTD/svg11.dtd">
<!-- Creator: CorelDRAW 2017 -->
<svg xmlns="http://www.w3.org/2000/svg" xml:space="preserve" width="136px" height="58px" version="1.1" style="shape-rendering:geometricPrecision; text-rendering:geometricPrecision; image-rendering:optimizeQuality; fill-rule:evenodd; clip-rule:evenodd"
viewBox="0 0 136 57.85"
 xmlns:xlink="http://www.w3.org/1999/xlink">
 <defs>
  <style type="text/css">
   <![CDATA[
    .fil0 {fill:none}
    .fil1 {fill:#8191AF}
    .fil2 {fill:#8191AF;fill-rule:nonzero}
   ]]>
  </style>
 </defs>
 <g id="Layer_x0020_1">
  <metadata id="CorelCorpID_0Corel-Layer"/>
  <rect class="fil0" width="136" height="57.85"/>
  <g id="_2916186129520">
   <path class="fil1" d="M109.39 9c-2.62,0.8 -2.41,3.36 -1.89,6.38 0.11,0.67 0.23,1.28 0.34,1.86 0.63,0.42 1.23,0.86 1.87,1.36 4.48,3.47 8.72,7.59 4.73,13.56 -1.46,2.19 -3.6,4.68 -6.04,6.93 -0.85,4.83 -1.49,11.62 5.44,9.54 6.98,-2.09 15.17,-9.9 19.16,-15.86 4.74,-7.09 -0.3,-12 -5.63,-16.13 -1.7,-1.32 -3.19,-2.3 -5.21,-3.55 -2.33,-1.44 -9.47,-5.09 -12.77,-4.09zm-13.14 6.02c-1.82,0.56 -1.68,2.34 -1.31,4.46 1.35,7.82 2.64,5.82 0.76,15.78 -0.63,3.35 -1.55,8.98 3.66,7.42 4.87,-1.46 10.59,-6.91 13.37,-11.07 3.31,-4.95 -0.21,-8.38 -3.93,-11.26 -1.19,-0.92 -2.23,-1.6 -3.63,-2.47 -1.63,-1.01 -6.61,-3.55 -8.92,-2.86z"/>
   <path class="fil2" d="M13.13 34.26l0 -14.88c0,-0.12 -0.05,-0.22 -0.12,-0.29 -0.08,-0.07 -0.18,-0.11 -0.3,-0.11l-2.1 0c-0.12,0 -0.22,0.04 -0.3,0.11 -0.08,0.07 -0.12,0.17 -0.12,0.29l0 5.82 -6.01 0 0 -5.82c-0.01,-0.12 -0.05,-0.22 -0.13,-0.29 -0.08,-0.07 -0.18,-0.11 -0.3,-0.11l-2.09 0c-0.12,0 -0.22,0.04 -0.3,0.11 -0.08,0.07 -0.12,0.17 -0.13,0.29l0 14.88c0.01,0.12 0.05,0.22 0.13,0.3 0.08,0.08 0.18,0.12 0.3,0.12l2.09 0c0.12,0 0.22,-0.04 0.3,-0.12 0.08,-0.08 0.12,-0.18 0.13,-0.3l0 -6.48 6.01 0 0 6.48c0,0.12 0.04,0.22 0.12,0.3 0.08,0.08 0.18,0.12 0.3,0.12l2.1 0c0.12,0 0.22,-0.04 0.3,-0.12 0.07,-0.08 0.12,-0.18 0.12,-0.3zm11.81 0l0 -7.62c0,-0.9 -0.18,-1.66 -0.54,-2.26 -0.36,-0.59 -0.88,-1.04 -1.57,-1.34 -0.69,-0.3 -1.54,-0.44 -2.55,-0.44 -0.73,0 -1.4,0.04 -1.99,0.1 -0.6,0.07 -1.11,0.15 -1.54,0.23 -0.14,0.04 -0.24,0.09 -0.3,0.16 -0.07,0.08 -0.1,0.17 -0.1,0.29l0 1.35c0,0.15 0.04,0.24 0.11,0.29 0.07,0.05 0.16,0.08 0.27,0.07 0.01,0 0.02,0 0.04,0 0.02,0 0.04,0 0.06,0 0.24,-0.02 0.54,-0.05 0.91,-0.08 0.36,-0.03 0.77,-0.04 1.2,-0.06 0.44,-0.02 0.89,-0.03 1.34,-0.03 0.42,0 0.77,0.05 1.04,0.14 0.28,0.1 0.48,0.27 0.62,0.52 0.14,0.25 0.21,0.6 0.21,1.06l0 0.93 -1.34 0c-1.22,0 -2.21,0.14 -2.97,0.41 -0.76,0.28 -1.32,0.69 -1.67,1.23 -0.35,0.54 -0.52,1.22 -0.52,2.02l0 0.09c0.01,0.71 0.11,1.29 0.32,1.75 0.21,0.47 0.5,0.83 0.85,1.09 0.35,0.25 0.75,0.44 1.18,0.54 0.43,0.11 0.87,0.16 1.31,0.15 0.51,0 1.01,-0.08 1.51,-0.24 0.5,-0.16 0.99,-0.39 1.48,-0.69l0 0.34c0,0.12 0.04,0.22 0.12,0.3 0.08,0.08 0.18,0.12 0.3,0.12l1.8 0c0.12,0 0.22,-0.04 0.3,-0.12 0.08,-0.08 0.12,-0.18 0.12,-0.3l0 0zm-2.79 -2.22c-0.31,0.17 -0.66,0.31 -1.03,0.42 -0.37,0.11 -0.75,0.17 -1.13,0.17 -0.35,0 -0.64,-0.03 -0.87,-0.11 -0.22,-0.08 -0.39,-0.21 -0.5,-0.4 -0.1,-0.19 -0.16,-0.46 -0.16,-0.8l0 -0.09c0,-0.29 0.03,-0.56 0.1,-0.78 0.07,-0.22 0.19,-0.41 0.36,-0.56 0.17,-0.15 0.4,-0.27 0.72,-0.34 0.3,-0.08 0.69,-0.12 1.17,-0.12l1.34 0 0 2.61zm15 6.41l0 -14.73c0.01,-0.11 -0.01,-0.19 -0.03,-0.26 -0.03,-0.07 -0.09,-0.13 -0.17,-0.18 -0.09,-0.05 -0.21,-0.09 -0.37,-0.13 -0.44,-0.12 -0.9,-0.22 -1.38,-0.3 -0.48,-0.08 -0.97,-0.14 -1.46,-0.19 -0.48,-0.04 -0.96,-0.06 -1.41,-0.06 -1.14,0 -2.08,0.21 -2.83,0.64 -0.75,0.43 -1.31,1.03 -1.68,1.82 -0.37,0.8 -0.55,1.74 -0.55,2.85l0 1.63c0,1.1 0.18,2.05 0.55,2.84 0.37,0.8 0.93,1.4 1.68,1.83 0.75,0.42 1.69,0.64 2.83,0.64 0.26,0 0.56,-0.01 0.91,-0.03 0.35,-0.02 0.73,-0.06 1.12,-0.12l0 3.75c0,0.12 0.05,0.22 0.12,0.3 0.08,0.08 0.18,0.12 0.3,0.12l1.95 0c0.12,0 0.22,-0.04 0.3,-0.12 0.08,-0.08 0.12,-0.18 0.12,-0.3zm-2.79 -6.03c-0.2,0.03 -0.43,0.05 -0.68,0.08 -0.25,0.02 -0.49,0.03 -0.73,0.04 -0.24,0.02 -0.45,0.03 -0.62,0.03 -0.6,-0.01 -1.07,-0.14 -1.4,-0.4 -0.33,-0.26 -0.56,-0.62 -0.68,-1.08 -0.13,-0.45 -0.19,-0.97 -0.19,-1.55l0 -1.63c0,-0.59 0.06,-1.11 0.19,-1.56 0.12,-0.45 0.35,-0.81 0.68,-1.07 0.33,-0.26 0.8,-0.39 1.4,-0.4 0.26,0 0.51,0.01 0.77,0.02 0.27,0.01 0.51,0.03 0.72,0.05 0.22,0.03 0.4,0.05 0.54,0.08l0 7.39zm15.01 6.03l0 -14.73c0,-0.11 -0.01,-0.19 -0.04,-0.26 -0.03,-0.07 -0.09,-0.13 -0.17,-0.18 -0.08,-0.05 -0.21,-0.09 -0.36,-0.13 -0.44,-0.12 -0.91,-0.22 -1.39,-0.3 -0.48,-0.08 -0.97,-0.14 -1.45,-0.19 -0.49,-0.04 -0.96,-0.06 -1.42,-0.06 -1.13,0 -2.08,0.21 -2.82,0.64 -0.75,0.43 -1.31,1.03 -1.68,1.82 -0.37,0.8 -0.56,1.74 -0.56,2.85l0 1.63c0,1.1 0.19,2.05 0.56,2.84 0.37,0.8 0.93,1.4 1.68,1.83 0.74,0.42 1.69,0.64 2.82,0.64 0.26,0 0.56,-0.01 0.92,-0.03 0.34,-0.02 0.72,-0.06 1.11,-0.12l0 3.75c0.01,0.12 0.05,0.22 0.13,0.3 0.08,0.08 0.18,0.12 0.3,0.12l1.94 0c0.12,0 0.22,-0.04 0.3,-0.12 0.08,-0.08 0.12,-0.18 0.13,-0.3zm-2.8 -6.03c-0.2,0.03 -0.42,0.05 -0.67,0.08 -0.25,0.02 -0.5,0.03 -0.74,0.04 -0.24,0.02 -0.45,0.03 -0.62,0.03 -0.6,-0.01 -1.06,-0.14 -1.4,-0.4 -0.32,-0.26 -0.55,-0.62 -0.68,-1.08 -0.13,-0.45 -0.19,-0.97 -0.18,-1.55l0 -1.63c-0.01,-0.59 0.05,-1.11 0.18,-1.56 0.13,-0.45 0.36,-0.81 0.68,-1.07 0.34,-0.26 0.8,-0.39 1.4,-0.4 0.26,0 0.52,0.01 0.78,0.02 0.26,0.01 0.5,0.03 0.72,0.05 0.22,0.03 0.4,0.05 0.53,0.08l0 7.39zm20.75 1.82l0 -7.2c0,-0.62 -0.05,-1.2 -0.15,-1.74 -0.1,-0.53 -0.28,-1.01 -0.53,-1.41 -0.25,-0.4 -0.61,-0.72 -1.07,-0.95 -0.46,-0.22 -1.05,-0.34 -1.77,-0.34 -0.48,0 -0.92,0.04 -1.31,0.11 -0.39,0.08 -0.77,0.19 -1.12,0.33 -0.35,0.14 -0.7,0.31 -1.06,0.51 -0.24,-0.3 -0.56,-0.53 -0.97,-0.7 -0.4,-0.17 -0.91,-0.25 -1.51,-0.25 -0.41,0 -0.79,0.04 -1.14,0.13 -0.34,0.09 -0.67,0.21 -0.98,0.36 -0.31,0.16 -0.61,0.33 -0.9,0.52l0 -0.44c-0.01,-0.12 -0.05,-0.22 -0.13,-0.3 -0.08,-0.08 -0.18,-0.12 -0.3,-0.13l-1.84 0c-0.12,0.01 -0.22,0.05 -0.3,0.13 -0.07,0.08 -0.12,0.18 -0.12,0.3l0 11.07c0,0.12 0.05,0.22 0.12,0.31 0.08,0.08 0.18,0.13 0.3,0.13l1.95 0c0.12,0 0.22,-0.05 0.3,-0.13 0.08,-0.09 0.12,-0.19 0.12,-0.31l0 -8.55c0.44,-0.24 0.81,-0.41 1.14,-0.53 0.32,-0.12 0.59,-0.17 0.81,-0.17 0.39,-0.01 0.7,0.05 0.91,0.17 0.21,0.12 0.36,0.33 0.43,0.63 0.09,0.29 0.12,0.71 0.12,1.25l0 7.2c0,0.12 0.05,0.22 0.12,0.31 0.09,0.08 0.18,0.13 0.3,0.13l1.95 0c0.12,0 0.22,-0.05 0.3,-0.13 0.08,-0.09 0.12,-0.19 0.13,-0.31l0 -7.2c0,-0.27 -0.01,-0.53 -0.02,-0.79 -0.02,-0.25 -0.04,-0.5 -0.07,-0.73 0.26,-0.14 0.51,-0.24 0.76,-0.32 0.25,-0.08 0.48,-0.13 0.69,-0.17 0.21,-0.03 0.38,-0.04 0.52,-0.04 0.39,-0.01 0.7,0.05 0.92,0.17 0.23,0.12 0.38,0.33 0.47,0.63 0.09,0.29 0.14,0.71 0.13,1.25l0 7.2c0.01,0.12 0.05,0.22 0.13,0.31 0.08,0.08 0.18,0.13 0.3,0.13l1.94 0c0.12,0 0.22,-0.05 0.3,-0.13 0.08,-0.09 0.12,-0.19 0.13,-0.31zm11.6 0.02l0 -7.62c0,-0.9 -0.18,-1.66 -0.54,-2.26 -0.36,-0.59 -0.89,-1.04 -1.58,-1.34 -0.69,-0.3 -1.53,-0.44 -2.54,-0.44 -0.73,0 -1.4,0.04 -2,0.1 -0.6,0.07 -1.11,0.15 -1.54,0.23 -0.13,0.04 -0.23,0.09 -0.3,0.16 -0.07,0.08 -0.1,0.17 -0.1,0.29l0 1.35c0.01,0.15 0.04,0.24 0.12,0.29 0.07,0.05 0.15,0.08 0.26,0.07 0.01,0 0.03,0 0.05,0 0.02,0 0.04,0 0.06,0 0.24,-0.02 0.54,-0.05 0.9,-0.08 0.37,-0.03 0.77,-0.04 1.21,-0.06 0.44,-0.02 0.88,-0.03 1.34,-0.03 0.42,0 0.76,0.05 1.04,0.14 0.28,0.1 0.48,0.27 0.62,0.52 0.14,0.25 0.2,0.6 0.2,1.06l0 0.93 -1.33 0c-1.23,0 -2.22,0.14 -2.98,0.41 -0.76,0.28 -1.31,0.69 -1.66,1.23 -0.36,0.54 -0.53,1.22 -0.53,2.02l0 0.09c0.01,0.71 0.12,1.29 0.33,1.75 0.21,0.47 0.49,0.83 0.85,1.09 0.35,0.25 0.74,0.44 1.17,0.54 0.43,0.11 0.87,0.16 1.32,0.15 0.5,0 1.01,-0.08 1.51,-0.24 0.49,-0.16 0.98,-0.39 1.47,-0.69l0 0.34c0,0.12 0.05,0.22 0.12,0.3 0.09,0.08 0.18,0.12 0.3,0.12l1.8 0c0.12,0 0.22,-0.04 0.3,-0.12 0.08,-0.08 0.12,-0.18 0.13,-0.3l0 0zm-2.8 -2.22c-0.31,0.17 -0.65,0.31 -1.02,0.42 -0.37,0.11 -0.75,0.17 -1.14,0.17 -0.35,0 -0.64,-0.03 -0.86,-0.11 -0.23,-0.08 -0.39,-0.21 -0.5,-0.4 -0.11,-0.19 -0.16,-0.46 -0.16,-0.8l0 -0.09c0,-0.29 0.03,-0.56 0.09,-0.78 0.07,-0.22 0.19,-0.41 0.36,-0.56 0.17,-0.15 0.41,-0.27 0.72,-0.34 0.31,-0.08 0.7,-0.12 1.18,-0.12l1.33 0 0 2.61zm15.33 2.2l0 -6.9c0,-0.68 -0.05,-1.3 -0.15,-1.88 -0.1,-0.57 -0.28,-1.07 -0.54,-1.5 -0.26,-0.43 -0.64,-0.76 -1.12,-1 -0.48,-0.24 -1.1,-0.36 -1.85,-0.36 -0.35,0 -0.67,0.01 -0.96,0.05 -0.29,0.03 -0.56,0.08 -0.82,0.16 -0.26,0.08 -0.53,0.18 -0.8,0.31 -0.26,0.13 -0.55,0.3 -0.85,0.49l0 -0.44c-0.01,-0.12 -0.05,-0.22 -0.13,-0.3 -0.08,-0.08 -0.18,-0.12 -0.3,-0.13l-1.84 0c-0.12,0.01 -0.22,0.05 -0.3,0.13 -0.08,0.08 -0.12,0.18 -0.12,0.3l0 11.07c0,0.12 0.04,0.22 0.12,0.31 0.08,0.08 0.18,0.13 0.3,0.13l1.95 0c0.12,0 0.22,-0.05 0.3,-0.13 0.08,-0.09 0.12,-0.19 0.12,-0.31l0 -8.51c0.45,-0.24 0.87,-0.42 1.26,-0.56 0.4,-0.13 0.77,-0.2 1.13,-0.2 0.41,-0.01 0.73,0.03 0.97,0.11 0.24,0.07 0.42,0.2 0.54,0.38 0.12,0.18 0.21,0.42 0.24,0.73 0.04,0.31 0.06,0.69 0.05,1.15l0 6.9c0.01,0.12 0.05,0.22 0.13,0.31 0.08,0.08 0.18,0.13 0.3,0.13l1.94 0c0.12,0 0.22,-0.05 0.3,-0.13 0.08,-0.09 0.12,-0.19 0.13,-0.31z"/>
  </g>
 </g>
</svg>
