<?xml version="1.0" encoding="UTF-8"?>
<!DOCTYPE svg PUBLIC "-//W3C//DTD SVG 1.1//EN" "http://www.w3.org/Graphics/SVG/1.1/DTD/svg11.dtd">
<!-- Creator: CorelDRAW 2017 -->
<svg xmlns="http://www.w3.org/2000/svg" xml:space="preserve" width="136px" height="58px" version="1.1" style="shape-rendering:geometricPrecision; text-rendering:geometricPrecision; image-rendering:optimizeQuality; fill-rule:evenodd; clip-rule:evenodd"
viewBox="0 0 136 57.85"
 xmlns:xlink="http://www.w3.org/1999/xlink">
 <defs>
  <style type="text/css">
   <![CDATA[
    .fil0 {fill:none}
    .fil1 {fill:#8191AF}
    .fil2 {fill:#8191AF;fill-rule:nonzero}
   ]]>
  </style>
 </defs>
 <g id="Layer_x0020_1">
  <metadata id="CorelCorpID_0Corel-Layer"/>
  <rect class="fil0" width="136" height="57.85"/>
  <g id="_2916233523600">
   <g>
    <path class="fil1" d="M113.29 26.28c0,2.07 0.45,3.56 1.45,4.98 0.21,0.28 0.4,0.54 0.65,0.8 0.16,0.16 0.17,0.24 0.31,0.38 0.34,0.34 1.75,1.43 2.2,1.53 0.62,-0.42 1.76,-1.61 1.76,-2.65 0,-0.83 -0.17,-1.22 -0.65,-1.87 -0.28,-0.37 -0.59,-0.5 -0.94,-1.33 -0.49,-1.14 -0.39,-2.59 0.25,-3.62 0.19,-0.29 0.3,-0.39 0.5,-0.65 0.19,-0.25 0.35,-0.42 0.59,-0.6 0.42,-0.32 0.79,-0.76 1.18,-1.15 0.42,-0.42 0.79,-0.78 1.2,-1.2l2.36 -2.3c1.33,-1.33 1.8,-1.66 3.77,-1.66 0.43,0 1.09,0.24 1.39,0.38 0.39,0.19 0.75,0.47 1.06,0.77 1.4,1.41 1.55,3.69 0.36,5.2l-4.38 4.37c0.53,1.11 0.56,2.24 0.68,3.36 0.03,0.21 -0.14,1.98 -0.24,2.19 0.24,-0.05 0.9,-0.61 1.12,-0.83 0.13,-0.13 0.21,-0.22 0.34,-0.35l4.01 -3.94c0.97,-0.97 1.73,-1.63 2.5,-2.8 1.5,-2.27 1.63,-5.49 0.44,-7.99 -0.26,-0.53 -0.81,-1.41 -1.21,-1.82 -0.8,-0.84 -0.53,-0.67 -1.58,-1.45 -1.08,-0.8 -3.03,-1.5 -4.55,-1.5 -1.44,0 -2.22,0.07 -3.56,0.6 -1.84,0.74 -2.64,1.66 -3.93,2.95 -0.51,0.51 -1.66,1.71 -2.17,2.12l-2.59 2.57c-0.19,0.19 -0.24,0.29 -0.41,0.48 -0.96,1.09 -1.91,3 -1.91,5.03z"/>
    <path class="fil1" d="M119.54 26.53c0,1.81 1.04,1.86 1.58,3.2 0.51,1.28 0.41,2.54 -0.29,3.71 -0.4,0.67 -1.55,1.63 -2.07,2.15l-3.78 3.78c-0.53,0.44 -0.82,0.82 -1.41,1.12 -1.19,0.6 -2.72,0.61 -3.93,-0.09 -0.98,-0.57 -1.96,-1.82 -1.96,-3.15 0,-2.29 0.77,-2.7 2.22,-4.15 0.5,-0.5 0.96,-0.95 1.45,-1.45 0.37,-0.36 1.15,-1.23 1.5,-1.46 -0.52,-1.09 -0.56,-2.36 -0.68,-3.43 -0.02,-0.26 0.05,-0.4 0.05,-0.74 0,-0.7 0.15,-1 0.19,-1.45 -0.27,0.19 -0.5,0.35 -0.74,0.59 -0.15,0.15 -0.18,0.16 -0.34,0.29l-4.36 4.28c-0.45,0.46 -0.86,0.87 -1.32,1.32 -1.31,1.31 -2.44,3.44 -2.44,5.5 0,2.22 0.33,3.48 1.52,5.23 1.37,2.01 4.05,3.54 6.48,3.54 1.42,0 2.41,-0.04 3.74,-0.61 2.62,-1.12 3.48,-2.74 5.2,-4.26 0.19,-0.17 0.28,-0.22 0.47,-0.41 0.66,-0.67 3.04,-2.97 3.42,-3.46 0.52,-0.67 0.93,-1.28 1.27,-2.13 0.71,-1.79 0.83,-4.11 0.13,-5.94 -0.3,-0.77 -0.31,-0.8 -0.7,-1.45 -0.47,-0.79 -0.95,-1.37 -1.66,-2 -0.31,-0.27 -1.39,-1.08 -1.78,-1.18 -0.62,0.42 -1.76,1.61 -1.76,2.65z"/>
   </g>
   <path class="fil1" d="M132.39 38.1c1.99,0 3.61,1.62 3.61,3.61 0,1.99 -1.62,3.61 -3.61,3.61 -1.99,0 -3.61,-1.62 -3.61,-3.61 0,-1.99 1.62,-3.61 3.61,-3.61z"/>
   <g>
    <path class="fil2" d="M10.73 32.4c0,0.36 0.04,0.66 0.13,0.89 0.09,0.22 0.22,0.4 0.39,0.53 0.17,0.13 0.39,0.21 0.65,0.26 0.27,0.05 0.57,0.07 0.92,0.07 0.57,0 1.08,-0.05 1.53,-0.17 0.45,-0.12 0.85,-0.24 1.19,-0.38 0.34,-0.14 0.63,-0.27 0.87,-0.4 0.23,-0.12 0.42,-0.18 0.54,-0.18 0.17,0 0.3,0.06 0.39,0.16 0.1,0.1 0.14,0.25 0.14,0.45 0,0.34 -0.04,0.58 -0.1,0.74 -0.07,0.15 -0.21,0.26 -0.43,0.34 -0.78,0.27 -1.65,0.47 -2.63,0.6 -0.97,0.14 -2.08,0.21 -3.31,0.21 -0.91,0 -1.66,-0.04 -2.24,-0.13 -0.59,-0.08 -1.04,-0.22 -1.38,-0.43 -0.33,-0.2 -0.56,-0.48 -0.68,-0.84 -0.13,-0.35 -0.19,-0.81 -0.19,-1.36l0 -14.58c0,-0.19 -0.02,-0.34 -0.06,-0.45 -0.05,-0.11 -0.11,-0.2 -0.18,-0.27 -0.08,-0.06 -0.17,-0.1 -0.28,-0.12 -0.11,-0.03 -0.23,-0.04 -0.35,-0.04 -0.19,0 -0.42,0.03 -0.7,0.09 -0.28,0.06 -0.57,0.15 -0.88,0.27 -0.31,0.12 -0.62,0.27 -0.93,0.45 -0.31,0.17 -0.59,0.37 -0.84,0.59 -0.24,0.23 -0.44,0.47 -0.59,0.75 -0.16,0.27 -0.23,0.57 -0.23,0.88 0,0.28 0.03,0.49 0.11,0.65 0.07,0.17 0.15,0.29 0.25,0.37 0.09,0.08 0.18,0.13 0.28,0.16 0.1,0.02 0.17,0.03 0.21,0.03 0.22,0 0.39,-0.04 0.53,-0.11 0.14,-0.07 0.26,-0.15 0.37,-0.23 0.12,-0.08 0.22,-0.16 0.32,-0.23 0.1,-0.08 0.21,-0.11 0.34,-0.11 0.1,0 0.21,0.02 0.32,0.07 0.12,0.05 0.23,0.12 0.33,0.23 0.09,0.1 0.18,0.23 0.25,0.4 0.06,0.16 0.1,0.37 0.1,0.61 0,0.34 -0.07,0.63 -0.2,0.88 -0.13,0.25 -0.3,0.46 -0.51,0.62 -0.21,0.17 -0.45,0.3 -0.72,0.38 -0.27,0.08 -0.54,0.12 -0.81,0.12 -0.4,0 -0.78,-0.07 -1.1,-0.21 -0.33,-0.15 -0.61,-0.34 -0.84,-0.59 -0.24,-0.24 -0.41,-0.54 -0.53,-0.87 -0.12,-0.33 -0.18,-0.69 -0.18,-1.06 0,-0.6 0.11,-1.13 0.32,-1.63 0.21,-0.49 0.51,-0.93 0.88,-1.33 0.37,-0.39 0.81,-0.73 1.31,-1.03 0.5,-0.29 1.04,-0.54 1.62,-0.74 0.58,-0.19 1.19,-0.34 1.82,-0.44 0.64,-0.1 1.27,-0.15 1.9,-0.15 0.71,0 1.25,0.07 1.64,0.2 0.39,0.14 0.68,0.29 0.86,0.48 0.19,0.19 0.29,0.39 0.33,0.59 0.03,0.21 0.05,0.38 0.05,0.52l0 14.49zm12.18 1.75c0,0.12 -0.02,0.25 -0.06,0.41 -0.04,0.16 -0.13,0.31 -0.27,0.45 -0.14,0.14 -0.34,0.26 -0.61,0.36 -0.26,0.1 -0.62,0.15 -1.07,0.15 -0.46,0 -0.81,-0.06 -1.07,-0.17 -0.26,-0.1 -0.45,-0.23 -0.58,-0.37 -0.12,-0.15 -0.21,-0.3 -0.23,-0.45 -0.03,-0.16 -0.05,-0.28 -0.05,-0.38l0 -9.9c0,-0.25 -0.06,-0.47 -0.17,-0.65 -0.12,-0.18 -0.31,-0.28 -0.59,-0.28 -0.14,0 -0.27,0.03 -0.37,0.08 -0.1,0.05 -0.21,0.13 -0.33,0.22l-0.27 -0.32c0.2,-0.16 0.41,-0.33 0.66,-0.48 0.24,-0.16 0.51,-0.3 0.79,-0.42 0.28,-0.12 0.59,-0.22 0.91,-0.3 0.32,-0.07 0.67,-0.11 1.02,-0.11 0.56,0 0.99,0.07 1.3,0.22 0.31,0.15 0.54,0.33 0.68,0.55 0.15,0.22 0.24,0.45 0.27,0.7 0.02,0.25 0.04,0.47 0.04,0.66l0 10.03zm10.78 -5.23c0,-1.08 -0.05,-1.94 -0.15,-2.59 -0.09,-0.64 -0.22,-1.14 -0.39,-1.47 -0.16,-0.34 -0.34,-0.56 -0.54,-0.67 -0.19,-0.11 -0.39,-0.16 -0.6,-0.16 -0.25,0 -0.47,0.06 -0.66,0.2 -0.19,0.13 -0.36,0.28 -0.5,0.45 -0.14,0.17 -0.26,0.34 -0.36,0.51 -0.1,0.18 -0.18,0.31 -0.25,0.39l0 8.57c0,0.12 -0.02,0.25 -0.05,0.41 -0.04,0.16 -0.12,0.31 -0.25,0.45 -0.13,0.14 -0.33,0.26 -0.59,0.36 -0.26,0.1 -0.62,0.15 -1.07,0.15 -0.46,0 -0.81,-0.06 -1.08,-0.17 -0.26,-0.1 -0.46,-0.23 -0.59,-0.37 -0.14,-0.15 -0.22,-0.3 -0.26,-0.45 -0.04,-0.16 -0.05,-0.28 -0.05,-0.38l0 -9.9c0,-0.25 -0.06,-0.47 -0.17,-0.65 -0.12,-0.18 -0.31,-0.28 -0.59,-0.28 -0.14,0 -0.27,0.03 -0.37,0.08 -0.1,0.05 -0.21,0.13 -0.34,0.22l-0.26 -0.32c0.19,-0.16 0.41,-0.33 0.66,-0.48 0.24,-0.16 0.51,-0.3 0.79,-0.42 0.28,-0.12 0.58,-0.22 0.91,-0.3 0.32,-0.07 0.66,-0.11 1.02,-0.11 0.56,0 0.99,0.09 1.3,0.27 0.31,0.19 0.53,0.41 0.68,0.67 0.15,0.25 0.24,0.52 0.27,0.8 0.02,0.27 0.04,0.51 0.04,0.7 0.32,-0.46 0.67,-0.87 1.08,-1.22 0.16,-0.16 0.34,-0.31 0.54,-0.45 0.2,-0.15 0.42,-0.28 0.64,-0.4 0.23,-0.11 0.47,-0.2 0.72,-0.27 0.26,-0.07 0.52,-0.1 0.78,-0.1 0.58,0 1.1,0.11 1.54,0.33 0.46,0.22 0.83,0.6 1.14,1.12 0.31,0.52 0.55,1.21 0.71,2.07 0.16,0.86 0.24,1.93 0.24,3.2 0,1.24 -0.11,2.32 -0.33,3.24 -0.23,0.91 -0.52,1.69 -0.87,2.33 -0.36,0.64 -0.77,1.17 -1.22,1.57 -0.46,0.41 -0.91,0.73 -1.38,0.96 -0.46,0.23 -0.9,0.39 -1.33,0.48 -0.42,0.09 -0.78,0.14 -1.09,0.15l-0.14 -0.53c0.25,-0.06 0.49,-0.15 0.71,-0.28 0.22,-0.13 0.42,-0.32 0.6,-0.56 0.17,-0.25 0.33,-0.57 0.47,-0.95 0.14,-0.38 0.26,-0.85 0.35,-1.43 0.1,-0.57 0.17,-1.25 0.22,-2.03 0.05,-0.78 0.07,-1.7 0.07,-2.74zm5.78 -0.18c0,-1.12 0.16,-2.1 0.49,-2.95 0.32,-0.84 0.75,-1.54 1.3,-2.11 0.54,-0.56 1.17,-0.99 1.89,-1.27 0.72,-0.28 1.47,-0.42 2.26,-0.42 0.79,0 1.54,0.13 2.26,0.39 0.72,0.26 1.35,0.66 1.89,1.2 0.55,0.54 0.98,1.22 1.3,2.05 0.33,0.82 0.49,1.8 0.49,2.93 0,1.12 -0.16,2.11 -0.49,2.98 -0.32,0.86 -0.75,1.59 -1.3,2.18 -0.54,0.59 -1.17,1.04 -1.89,1.34 -0.72,0.3 -1.47,0.46 -2.26,0.46l-0.07 0c0.47,0.13 1,0.32 1.57,0.56 0.56,0.24 1.16,0.5 1.77,0.77 0.61,0.27 1.23,0.55 1.85,0.84 0.61,0.29 1.21,0.55 1.8,0.78 0.58,0.23 1.13,0.41 1.65,0.56 0.52,0.15 0.98,0.22 1.39,0.22 0.27,0 0.51,-0.02 0.7,-0.06 0.19,-0.05 0.35,-0.11 0.48,-0.18 0.13,-0.08 0.23,-0.17 0.3,-0.27 0.08,-0.11 0.14,-0.22 0.19,-0.35l0.38 0.08c-0.04,0.48 -0.14,0.93 -0.3,1.33 -0.16,0.39 -0.37,0.74 -0.64,1.02 -0.27,0.29 -0.59,0.51 -0.97,0.67 -0.37,0.16 -0.8,0.24 -1.27,0.24 -0.55,0 -1.16,-0.12 -1.81,-0.34 -0.65,-0.22 -1.32,-0.5 -2.02,-0.82 -0.7,-0.33 -1.4,-0.69 -2.12,-1.08 -0.71,-0.38 -1.41,-0.74 -2.09,-1.07 -0.68,-0.33 -1.33,-0.6 -1.95,-0.83 -0.62,-0.22 -1.18,-0.33 -1.67,-0.33 -0.51,0 -0.87,0.22 -1.08,0.66l-0.4 -0.14c0.03,-0.14 0.09,-0.35 0.19,-0.61 0.1,-0.27 0.26,-0.53 0.48,-0.8 0.21,-0.26 0.49,-0.5 0.82,-0.7 0.34,-0.21 0.75,-0.33 1.24,-0.36 -0.61,-0.15 -1.18,-0.41 -1.71,-0.76 -0.53,-0.36 -0.99,-0.81 -1.38,-1.36 -0.39,-0.54 -0.7,-1.19 -0.93,-1.94 -0.23,-0.74 -0.34,-1.58 -0.34,-2.51zm7.89 -0.13c0,-0.69 -0.02,-1.34 -0.07,-1.98 -0.04,-0.64 -0.14,-1.21 -0.28,-1.7 -0.13,-0.5 -0.33,-0.9 -0.58,-1.19 -0.26,-0.3 -0.6,-0.44 -1.02,-0.44 -0.42,0 -0.76,0.15 -1.01,0.47 -0.26,0.31 -0.46,0.72 -0.59,1.23 -0.14,0.51 -0.23,1.09 -0.27,1.74 -0.04,0.65 -0.07,1.32 -0.07,2 0,0.68 0.03,1.35 0.07,2 0.04,0.66 0.13,1.24 0.27,1.76 0.13,0.51 0.33,0.93 0.59,1.24 0.25,0.31 0.59,0.47 1.01,0.47 0.42,0 0.76,-0.17 1.02,-0.49 0.25,-0.33 0.45,-0.75 0.58,-1.28 0.14,-0.53 0.24,-1.13 0.28,-1.8 0.05,-0.67 0.07,-1.35 0.07,-2.03zm17.35 5.57c0,0.11 -0.02,0.24 -0.05,0.4 -0.03,0.15 -0.11,0.3 -0.25,0.44 -0.13,0.13 -0.33,0.25 -0.6,0.35 -0.26,0.1 -0.62,0.15 -1.07,0.15 -0.46,0 -0.81,-0.06 -1.08,-0.17 -0.26,-0.1 -0.45,-0.23 -0.58,-0.37 -0.14,-0.15 -0.22,-0.3 -0.26,-0.45 -0.03,-0.16 -0.05,-0.28 -0.05,-0.38l0 -9.07c0,-0.12 -0.01,-0.24 -0.05,-0.36 -0.03,-0.13 -0.08,-0.24 -0.15,-0.34 -0.07,-0.11 -0.16,-0.19 -0.26,-0.25 -0.1,-0.07 -0.22,-0.1 -0.36,-0.1 -0.23,0 -0.46,0.06 -0.68,0.2 -0.22,0.13 -0.43,0.28 -0.62,0.45 -0.19,0.17 -0.36,0.34 -0.5,0.51 -0.14,0.18 -0.25,0.31 -0.3,0.39l0 8.6c0,0.11 -0.02,0.24 -0.06,0.4 -0.03,0.15 -0.11,0.3 -0.25,0.44 -0.13,0.13 -0.32,0.25 -0.59,0.35 -0.26,0.1 -0.61,0.15 -1.07,0.15 -0.45,0 -0.81,-0.06 -1.07,-0.17 -0.26,-0.1 -0.46,-0.23 -0.59,-0.37 -0.14,-0.15 -0.23,-0.3 -0.26,-0.45 -0.04,-0.16 -0.06,-0.28 -0.06,-0.38l0 -9.9c0,-0.25 -0.05,-0.47 -0.17,-0.65 -0.11,-0.18 -0.31,-0.28 -0.58,-0.28 -0.15,0 -0.27,0.03 -0.37,0.08 -0.11,0.05 -0.22,0.13 -0.34,0.22l-0.27 -0.32c0.2,-0.16 0.42,-0.33 0.67,-0.48 0.24,-0.16 0.5,-0.3 0.78,-0.42 0.28,-0.12 0.59,-0.22 0.92,-0.3 0.32,-0.07 0.66,-0.11 1.02,-0.11 0.56,0 0.99,0.09 1.3,0.27 0.31,0.19 0.53,0.41 0.68,0.67 0.14,0.25 0.23,0.52 0.26,0.8 0.03,0.27 0.05,0.51 0.05,0.7 0.4,-0.46 0.83,-0.87 1.29,-1.22 0.19,-0.16 0.4,-0.31 0.63,-0.45 0.22,-0.15 0.46,-0.28 0.69,-0.4 0.24,-0.11 0.49,-0.2 0.75,-0.27 0.26,-0.07 0.51,-0.1 0.77,-0.1 0.49,0 0.92,0.09 1.27,0.27 0.35,0.18 0.63,0.39 0.85,0.64 0.21,0.26 0.37,0.52 0.46,0.8 0.1,0.28 0.15,0.52 0.15,0.73 0.41,-0.46 0.85,-0.87 1.3,-1.22 0.19,-0.16 0.39,-0.31 0.62,-0.45 0.22,-0.15 0.45,-0.28 0.69,-0.4 0.25,-0.11 0.5,-0.2 0.75,-0.27 0.25,-0.07 0.51,-0.1 0.76,-0.1 0.5,0 0.92,0.09 1.27,0.27 0.35,0.19 0.64,0.43 0.85,0.73 0.21,0.3 0.37,0.64 0.47,1.01 0.09,0.38 0.15,0.76 0.15,1.13l0 7.95c0,0.07 0,0.16 0.01,0.25 0.01,0.09 0.03,0.17 0.06,0.25 0.04,0.09 0.09,0.15 0.16,0.2 0.07,0.05 0.17,0.08 0.29,0.08 0.17,0 0.31,-0.06 0.44,-0.18 0.13,-0.11 0.25,-0.23 0.36,-0.35l0.31 0.27c-0.13,0.18 -0.28,0.38 -0.48,0.6 -0.2,0.22 -0.43,0.43 -0.7,0.62 -0.27,0.2 -0.58,0.36 -0.93,0.49 -0.36,0.14 -0.76,0.21 -1.2,0.21 -0.38,0 -0.71,-0.05 -0.99,-0.15 -0.28,-0.1 -0.51,-0.24 -0.7,-0.4 -0.19,-0.17 -0.34,-0.37 -0.43,-0.59 -0.1,-0.23 -0.15,-0.47 -0.15,-0.73l0 -8.57c0,-0.12 -0.01,-0.24 -0.04,-0.36 -0.04,-0.13 -0.09,-0.24 -0.15,-0.34 -0.07,-0.11 -0.15,-0.19 -0.25,-0.25 -0.11,-0.07 -0.23,-0.1 -0.36,-0.1 -0.23,0 -0.46,0.06 -0.69,0.2 -0.23,0.13 -0.44,0.28 -0.63,0.45 -0.19,0.17 -0.35,0.34 -0.49,0.51 -0.14,0.18 -0.24,0.31 -0.3,0.39l0 8.6zm16.01 -5.52c0,-0.21 -0.07,-0.38 -0.21,-0.49 -0.14,-0.11 -0.31,-0.16 -0.52,-0.16 -0.31,0 -0.59,0.07 -0.86,0.2 -0.27,0.14 -0.51,0.34 -0.71,0.61 -0.21,0.26 -0.37,0.59 -0.49,0.98 -0.12,0.39 -0.18,0.84 -0.18,1.35 0,0.5 0.04,0.91 0.11,1.23 0.07,0.33 0.17,0.59 0.3,0.78 0.12,0.19 0.26,0.33 0.43,0.41 0.16,0.07 0.33,0.11 0.51,0.11 0.22,0 0.43,-0.06 0.63,-0.18 0.2,-0.11 0.37,-0.26 0.51,-0.44 0.15,-0.18 0.26,-0.38 0.35,-0.6 0.08,-0.22 0.13,-0.44 0.13,-0.67l0 -3.13zm-2.04 -5.62c-0.3,0 -0.56,0.03 -0.81,0.1 -0.25,0.07 -0.46,0.16 -0.64,0.26 -0.18,0.1 -0.32,0.22 -0.43,0.34 -0.1,0.12 -0.15,0.24 -0.15,0.35 0,0.13 0.06,0.22 0.2,0.28 0.13,0.05 0.28,0.12 0.44,0.19 0.16,0.07 0.31,0.17 0.44,0.31 0.14,0.13 0.2,0.33 0.2,0.61 0,0.18 -0.03,0.34 -0.11,0.49 -0.07,0.15 -0.17,0.28 -0.29,0.4 -0.13,0.12 -0.27,0.2 -0.44,0.27 -0.16,0.07 -0.34,0.1 -0.52,0.1 -0.48,0 -0.86,-0.17 -1.16,-0.49 -0.29,-0.33 -0.44,-0.76 -0.44,-1.3 0,-0.52 0.13,-0.96 0.41,-1.34 0.27,-0.37 0.63,-0.68 1.07,-0.92 0.44,-0.24 0.94,-0.41 1.5,-0.53 0.55,-0.12 1.11,-0.17 1.66,-0.17 0.67,0 1.31,0.07 1.91,0.22 0.61,0.14 1.15,0.37 1.62,0.69 0.46,0.31 0.83,0.72 1.11,1.2 0.28,0.49 0.42,1.08 0.42,1.78l0 7.25c0,0.08 0,0.16 0.01,0.26 0.01,0.09 0.03,0.18 0.06,0.25 0.04,0.08 0.09,0.14 0.16,0.19 0.07,0.06 0.17,0.08 0.3,0.08 0.15,0 0.29,-0.06 0.43,-0.17 0.13,-0.12 0.24,-0.24 0.35,-0.36l0.32 0.27c-0.13,0.18 -0.28,0.38 -0.46,0.6 -0.18,0.21 -0.4,0.41 -0.66,0.6 -0.26,0.18 -0.55,0.35 -0.9,0.47 -0.34,0.13 -0.73,0.2 -1.17,0.2 -0.53,0 -1.01,-0.17 -1.43,-0.49 -0.42,-0.32 -0.69,-0.81 -0.82,-1.48 -0.28,0.37 -0.56,0.68 -0.86,0.93 -0.29,0.24 -0.59,0.44 -0.9,0.6 -0.31,0.15 -0.62,0.26 -0.93,0.33 -0.31,0.07 -0.63,0.11 -0.94,0.11 -0.41,0 -0.81,-0.07 -1.2,-0.2 -0.38,-0.12 -0.73,-0.33 -1.03,-0.61 -0.3,-0.28 -0.55,-0.64 -0.73,-1.08 -0.19,-0.45 -0.28,-0.99 -0.28,-1.63 0,-0.78 0.16,-1.42 0.46,-1.91 0.31,-0.5 0.72,-0.92 1.22,-1.25 0.5,-0.34 1.07,-0.63 1.7,-0.87 0.64,-0.24 1.29,-0.49 1.96,-0.76 0.49,-0.2 0.86,-0.49 1.09,-0.88 0.22,-0.39 0.33,-0.79 0.33,-1.2 0,-0.63 -0.18,-1.14 -0.55,-1.52 -0.38,-0.38 -0.88,-0.57 -1.52,-0.57zm16.9 5.88c0,-1.08 -0.05,-1.94 -0.15,-2.59 -0.1,-0.64 -0.23,-1.14 -0.39,-1.47 -0.16,-0.34 -0.34,-0.56 -0.54,-0.67 -0.2,-0.11 -0.4,-0.16 -0.6,-0.16 -0.25,0 -0.47,0.06 -0.67,0.2 -0.19,0.13 -0.35,0.28 -0.5,0.45 -0.14,0.17 -0.26,0.34 -0.35,0.51 -0.11,0.18 -0.19,0.31 -0.25,0.39l0 8.57c0,0.12 -0.02,0.25 -0.06,0.41 -0.03,0.16 -0.11,0.31 -0.25,0.45 -0.13,0.14 -0.32,0.26 -0.59,0.36 -0.26,0.1 -0.62,0.15 -1.07,0.15 -0.45,0 -0.81,-0.06 -1.07,-0.17 -0.26,-0.1 -0.46,-0.23 -0.6,-0.37 -0.14,-0.15 -0.22,-0.3 -0.25,-0.45 -0.04,-0.16 -0.06,-0.28 -0.06,-0.38l0 -9.9c0,-0.25 -0.05,-0.47 -0.17,-0.65 -0.12,-0.18 -0.31,-0.28 -0.58,-0.28 -0.15,0 -0.27,0.03 -0.37,0.08 -0.11,0.05 -0.22,0.13 -0.34,0.22l-0.27 -0.32c0.2,-0.16 0.42,-0.33 0.66,-0.48 0.25,-0.16 0.51,-0.3 0.79,-0.42 0.28,-0.12 0.59,-0.22 0.91,-0.3 0.33,-0.07 0.67,-0.11 1.03,-0.11 0.56,0 0.99,0.09 1.3,0.27 0.31,0.19 0.53,0.41 0.67,0.67 0.15,0.25 0.24,0.52 0.27,0.8 0.03,0.27 0.05,0.51 0.05,0.7 0.31,-0.46 0.67,-0.87 1.07,-1.22 0.17,-0.16 0.35,-0.31 0.55,-0.45 0.2,-0.15 0.41,-0.28 0.64,-0.4 0.23,-0.11 0.47,-0.2 0.72,-0.27 0.25,-0.07 0.51,-0.1 0.77,-0.1 0.59,0 1.1,0.11 1.55,0.33 0.45,0.22 0.83,0.6 1.14,1.12 0.31,0.52 0.54,1.21 0.71,2.07 0.16,0.86 0.24,1.93 0.24,3.2 0,1.24 -0.11,2.32 -0.34,3.24 -0.22,0.91 -0.51,1.69 -0.87,2.33 -0.36,0.64 -0.77,1.17 -1.22,1.57 -0.45,0.41 -0.91,0.73 -1.37,0.96 -0.46,0.23 -0.9,0.39 -1.33,0.48 -0.42,0.09 -0.79,0.14 -1.1,0.15l-0.14 -0.53c0.26,-0.06 0.5,-0.15 0.72,-0.28 0.21,-0.13 0.41,-0.32 0.59,-0.56 0.18,-0.25 0.34,-0.57 0.47,-0.95 0.14,-0.38 0.26,-0.85 0.36,-1.43 0.1,-0.57 0.17,-1.25 0.22,-2.03 0.04,-0.78 0.07,-1.7 0.07,-2.74z"/>
    <path class="fil2" d="M18.57 19.06c0,-0.24 0.06,-0.47 0.16,-0.69 0.11,-0.22 0.26,-0.4 0.45,-0.57 0.2,-0.16 0.41,-0.29 0.67,-0.38 0.25,-0.09 0.53,-0.14 0.83,-0.14 0.29,0 0.56,0.05 0.81,0.14 0.26,0.09 0.47,0.22 0.66,0.38 0.19,0.17 0.34,0.35 0.45,0.57 0.1,0.22 0.16,0.45 0.16,0.69 0,0.25 -0.06,0.48 -0.16,0.69 -0.11,0.22 -0.26,0.4 -0.45,0.56 -0.19,0.16 -0.4,0.29 -0.66,0.38 -0.25,0.1 -0.52,0.14 -0.81,0.14 -0.3,0 -0.58,-0.04 -0.83,-0.14 -0.26,-0.09 -0.47,-0.22 -0.67,-0.38 -0.19,-0.16 -0.34,-0.34 -0.45,-0.56 -0.1,-0.21 -0.16,-0.44 -0.16,-0.69z"/>
   </g>
  </g>
 </g>
</svg>
