<?xml version="1.0" encoding="UTF-8"?>
<!DOCTYPE svg PUBLIC "-//W3C//DTD SVG 1.1//EN" "http://www.w3.org/Graphics/SVG/1.1/DTD/svg11.dtd">
<!-- Creator: CorelDRAW 2017 -->
<svg xmlns="http://www.w3.org/2000/svg" xml:space="preserve" width="134px" height="57px" version="1.1" style="shape-rendering:geometricPrecision; text-rendering:geometricPrecision; image-rendering:optimizeQuality; fill-rule:evenodd; clip-rule:evenodd"
viewBox="0 0 134 57"
 xmlns:xlink="http://www.w3.org/1999/xlink">
 <defs>
  <style type="text/css">
   <![CDATA[
    .fil0 {fill:none}
    .fil2 {fill:#7A8BAA}
    .fil1 {fill:#7A8BAA;fill-rule:nonzero}
   ]]>
  </style>
 </defs>
 <g id="Layer_x0020_1">
  <metadata id="CorelCorpID_0Corel-Layer"/>
  <rect class="fil0" width="134" height="57"/>
  <g id="_3221082986896">
   <path class="fil1" d="M95.56 25.08l0 6.47c0,1.4 0.27,2.46 0.8,3.17 0.53,0.71 1.45,1.07 2.74,1.07 0.58,0 1.13,-0.05 1.66,-0.15 0.53,-0.11 1.1,-0.29 1.69,-0.55l0 1.36c0,0.68 -0.16,1.25 -0.5,1.72 -0.34,0.47 -0.78,0.84 -1.33,1.13 -0.54,0.28 -1.16,0.49 -1.87,0.62 -0.7,0.13 -1.41,0.2 -2.14,0.2 -0.96,0 -1.84,-0.13 -2.65,-0.39 -0.8,-0.26 -1.49,-0.69 -2.06,-1.27 -0.57,-0.58 -1.02,-1.36 -1.35,-2.34 -0.32,-0.97 -0.48,-2.17 -0.48,-3.6l0 -7.64 -3.08 -1.32c0.05,-0.47 0.17,-0.96 0.35,-1.48 0.18,-0.52 0.39,-0.96 0.62,-1.33l2.11 0 0 -1.36c0,-0.73 0.06,-1.29 0.17,-1.69 0.12,-0.41 0.37,-0.7 0.76,-0.9 0.39,-0.19 0.94,-0.31 1.66,-0.33 0.71,-0.03 1.68,-0.04 2.9,-0.04l0 4.32 5.3 0c0.47,0 0.83,0.08 1.09,0.24 0.26,0.15 0.45,0.4 0.56,0.74 0.12,0.34 0.19,0.78 0.22,1.34 0.02,0.56 0.04,1.23 0.04,2.01l-7.21 0zm-10.79 11.88c0,0.73 -0.06,1.29 -0.18,1.69 -0.11,0.41 -0.37,0.7 -0.76,0.88 -0.39,0.18 -0.94,0.29 -1.67,0.31 -0.73,0.03 -1.69,0.04 -2.88,0.04l0 -10.79c0,-1.25 -0.26,-2.19 -0.76,-2.84 -0.51,-0.65 -1.32,-0.98 -2.44,-0.98 -0.52,0 -1.03,0.1 -1.54,0.3 -0.5,0.19 -0.96,0.48 -1.36,0.87 -0.4,0.39 -0.73,0.88 -0.97,1.46 -0.25,0.59 -0.37,1.26 -0.37,2.01l0 9.82 -5.5 0 0 -16.17c0,-0.73 0.06,-1.29 0.18,-1.7 0.11,-0.4 0.37,-0.7 0.76,-0.89 0.39,-0.2 0.94,-0.31 1.65,-0.33 0.72,-0.03 1.68,-0.04 2.91,-0.04l0 3.47c0.83,-1.25 1.83,-2.18 3.01,-2.79 1.19,-0.61 2.45,-0.92 3.8,-0.92 2.03,0 3.55,0.57 4.58,1.7 1.03,1.13 1.54,2.72 1.54,4.77l0 10.13zm-28.17 2.77l0 -16.17c0,-0.73 0.06,-1.29 0.18,-1.7 0.12,-0.4 0.37,-0.7 0.76,-0.89 0.39,-0.2 0.94,-0.31 1.65,-0.33 0.72,-0.03 1.69,-0.04 2.91,-0.04l0 19.13 -5.5 0zm-15.27 0l0 -16.17c0,-0.73 0.06,-1.29 0.18,-1.7 0.12,-0.4 0.37,-0.7 0.76,-0.89 0.39,-0.2 0.94,-0.31 1.65,-0.33 0.72,-0.03 1.69,-0.04 2.91,-0.04l0 3.82c0.75,-1.41 1.59,-2.43 2.51,-3.08 0.92,-0.65 1.85,-0.98 2.78,-0.98 0.42,0 0.76,0.09 1.02,0.26 0.26,0.17 0.45,0.45 0.58,0.86 0.13,0.4 0.21,0.95 0.23,1.65 0.03,0.7 0,1.58 -0.07,2.65 -1.12,-0.18 -2.11,-0.21 -2.98,-0.08 -0.87,0.13 -1.61,0.45 -2.22,0.96 -0.61,0.5 -1.08,1.2 -1.39,2.08 -0.31,0.88 -0.46,2 -0.46,3.35l0 7.64 -5.5 0zm-9.11 -10.13c0,-0.63 -0.07,-1.22 -0.2,-1.79 -0.13,-0.58 -0.33,-1.08 -0.6,-1.52 -0.27,-0.45 -0.64,-0.8 -1.09,-1.06 -0.46,-0.26 -1.01,-0.39 -1.66,-0.39 -0.67,0 -1.29,0.17 -1.85,0.49 -0.56,0.33 -1.03,0.77 -1.42,1.33 -0.39,0.55 -0.69,1.23 -0.9,2.02 -0.2,0.79 -0.31,1.66 -0.31,2.59 0,0.52 0.07,1.03 0.22,1.52 0.14,0.5 0.35,0.95 0.64,1.37 0.28,0.41 0.65,0.74 1.11,0.99 0.45,0.25 0.99,0.37 1.62,0.37 0.72,0 1.37,-0.17 1.92,-0.51 0.56,-0.34 1.02,-0.78 1.39,-1.34 0.36,-0.56 0.64,-1.19 0.83,-1.89 0.2,-0.7 0.3,-1.43 0.3,-2.18zm-13.79 16.55l0 -22.59c0,-0.73 0.06,-1.29 0.17,-1.7 0.12,-0.4 0.37,-0.7 0.76,-0.89 0.39,-0.2 0.94,-0.31 1.66,-0.33 0.71,-0.03 1.68,-0.04 2.9,-0.04l0 3.54c0.75,-1.22 1.69,-2.15 2.82,-2.8 1.13,-0.65 2.44,-0.98 3.92,-0.98 1.25,0 2.32,0.23 3.23,0.69 0.91,0.45 1.66,1.08 2.26,1.89 0.6,0.8 1.05,1.76 1.35,2.86 0.29,1.1 0.44,2.32 0.44,3.64 0,1.46 -0.21,2.83 -0.64,4.11 -0.43,1.29 -1.02,2.42 -1.79,3.39 -0.77,0.97 -1.69,1.75 -2.77,2.32 -1.07,0.57 -2.26,0.86 -3.56,0.86 -1.09,0 -2.09,-0.19 -2.98,-0.55 -0.9,-0.36 -1.66,-0.93 -2.28,-1.71l0 8.29 -5.49 0zm-3.82 -12.03c0,1.04 -0.22,1.93 -0.64,2.68 -0.43,0.76 -1,1.38 -1.7,1.87 -0.7,0.5 -1.5,0.86 -2.41,1.09 -0.91,0.24 -1.85,0.36 -2.81,0.36 -0.6,0 -1.23,-0.05 -1.89,-0.14 -0.66,-0.09 -1.27,-0.27 -1.83,-0.53 -0.56,-0.26 -1.02,-0.63 -1.4,-1.11 -0.38,-0.48 -0.57,-1.09 -0.57,-1.85l0 -1.32c0.65,0.28 1.35,0.52 2.11,0.7 0.75,0.18 1.49,0.27 2.22,0.27 0.88,0 1.61,-0.12 2.18,-0.37 0.57,-0.24 0.86,-0.63 0.86,-1.15 0,-0.41 -0.22,-0.73 -0.65,-0.95 -0.42,-0.22 -0.96,-0.42 -1.59,-0.59 -0.64,-0.16 -1.33,-0.36 -2.07,-0.58 -0.74,-0.22 -1.43,-0.55 -2.06,-0.97 -0.64,-0.43 -1.17,-1 -1.6,-1.72 -0.43,-0.71 -0.64,-1.67 -0.64,-2.86 0,-1.01 0.21,-1.93 0.64,-2.75 0.43,-0.82 1.01,-1.51 1.75,-2.08 0.74,-0.57 1.61,-1.01 2.59,-1.31 0.99,-0.3 2.06,-0.45 3.2,-0.45 1.06,0 2.02,0.12 2.88,0.36 0.86,0.23 1.59,0.55 2.18,0.95 0.6,0.4 1.06,0.88 1.39,1.44 0.32,0.56 0.48,1.16 0.48,1.81 0,0.86 -0.27,1.47 -0.82,1.83 -0.54,0.37 -1.24,0.55 -2.1,0.55l-1.52 0 0 -0.66c0,-0.73 -0.2,-1.3 -0.6,-1.72 -0.4,-0.41 -1.02,-0.62 -1.85,-0.62 -0.76,0 -1.33,0.19 -1.74,0.58 -0.4,0.39 -0.6,0.83 -0.6,1.33 0,0.65 0.21,1.13 0.64,1.46 0.43,0.32 0.96,0.59 1.6,0.8 0.64,0.21 1.32,0.41 2.06,0.6 0.74,0.2 1.43,0.48 2.07,0.84 0.64,0.36 1.17,0.88 1.6,1.54 0.42,0.66 0.64,1.55 0.64,2.67z"/>
   <path class="fil1" d="M63.95 14.91c0,1.36 -0.34,2.37 -1.01,3.05 -0.68,0.68 -1.82,1.02 -3.41,1.02 -1.66,0 -2.82,-0.34 -3.48,-1.02 -0.66,-0.68 -0.99,-1.69 -0.99,-3.05 0,-1.32 0.33,-2.33 0.99,-3.02 0.66,-0.7 1.82,-1.05 3.48,-1.05 1.59,0 2.73,0.35 3.41,1.05 0.67,0.69 1.01,1.7 1.01,3.02z"/>
   <g>
    <path class="fil2" d="M120.04 21.63c-0.26,0.04 -4.23,2.72 -4.81,3.1 -5.87,3.78 -10.93,4.97 -17.35,2.09 -0.22,-0.09 -0.47,-0.24 -0.69,-0.31 1.97,2.15 5.93,3.15 8.78,3.5 3.15,0.38 5.7,0.24 8.78,0.15 0.37,-0.01 1.12,-0.06 1.46,0.04 0.51,0.16 0.67,0.63 0.82,0.7 0.09,0.27 0.41,1.03 0.54,1.18 0.41,0 0.79,-0.74 1.01,-1.1 1.11,-1.83 2.6,-5.72 3.27,-7.82 0.24,-0.73 0.08,-1.32 -0.33,-1.7 -0.2,-0.19 -0.46,-0.29 -0.79,-0.24 -0.16,0.03 -0.38,0.17 -0.52,0.26l-0.17 0.15z"/>
    <path class="fil2" d="M114.39 32.98c-0.31,0.19 -1.74,2.16 -2.03,2.59 -0.63,0.93 -1.27,1.85 -1.84,2.83 -0.49,0.85 -1.59,2.22 -0.59,3.35 0.47,0.52 1.03,0.3 1.73,0.13 3.07,-0.72 6.24,-1.79 9.44,-1.86 4.57,-0.11 6.92,1.69 7.34,1.71 0.12,0.16 0.6,0.39 0.77,0.49 1.13,0.7 2.91,2.08 3.8,3.04l0.87 0.89c-0.36,-0.96 -1.91,-2.79 -2.64,-3.49 -3.16,-3.06 -7.32,-5.09 -11.39,-6.66 -0.95,-0.38 -1.95,-0.71 -2.87,-1.13 -1.3,-0.59 -0.98,-2.13 -1.34,-2.75 -0.31,-0.05 -0.54,0.17 -0.72,0.32l-0.53 0.54z"/>
   </g>
  </g>
 </g>
</svg>
