<?xml version="1.0" encoding="UTF-8"?>
<!DOCTYPE svg PUBLIC "-//W3C//DTD SVG 1.1//EN" "http://www.w3.org/Graphics/SVG/1.1/DTD/svg11.dtd">
<!-- Creator: CorelDRAW 2017 -->
<svg xmlns="http://www.w3.org/2000/svg" xml:space="preserve" width="136px" height="58px" version="1.1" style="shape-rendering:geometricPrecision; text-rendering:geometricPrecision; image-rendering:optimizeQuality; fill-rule:evenodd; clip-rule:evenodd"
viewBox="0 0 136 57.85"
 xmlns:xlink="http://www.w3.org/1999/xlink">
 <defs>
  <style type="text/css">
   <![CDATA[
    .fil0 {fill:none}
    .fil1 {fill:#8191AF}
   ]]>
  </style>
 </defs>
 <g id="Layer_x0020_1">
  <metadata id="CorelCorpID_0Corel-Layer"/>
  <rect class="fil0" width="136" height="57.85"/>
  <g id="_2916186116624">
   <g>
    <path class="fil1" d="M38.39 18.81c0.08,-1.72 -2.56,-1.37 -3.63,-1.19 -1.41,0.24 -2.35,0.78 -3.17,1.96 -1.25,1.8 -2.64,4.55 -3.77,6.53 -0.61,1.08 -1.21,2.27 -1.86,3.31 -1.72,2.74 -1.97,1 -2.8,1.67 -0.04,0.03 -1.78,3 -1.91,3.27 -0.41,0.82 0.82,2.37 1.29,3.24 0.43,0.82 1.39,2.57 2.17,3.03 1.31,0.79 2.11,-1.01 2.68,-1.93 1.31,-2.11 2.52,-4.39 3.75,-6.55 1.08,-1.9 7.2,-12.08 7.25,-13.34zm-11.25 0.04c0.11,-1.62 -2.5,-1.44 -3.54,-1.36 -1.43,0.12 -2.4,0.58 -3.27,1.75 -1.21,1.62 -2.64,4.51 -3.7,6.36 -1.22,2.13 -2.46,4.24 -3.7,6.37 -1.6,2.72 -2.78,4.09 -0.93,7.16 0.63,1.05 1.45,2.51 2.79,1.23 0.75,-0.72 1.49,-2.13 1.95,-3.07 2.22,-4.54 2.28,-3.38 3.48,-3.53 0.5,-0.05 0.73,-0.94 0.97,-1.35 0.61,-1.06 1.57,-2.1 1.37,-3.31 -0.25,-1.56 0.2,-2.47 0.94,-3.82 0.7,-1.28 3.57,-5.33 3.64,-6.43z"/>
    <path class="fil1" d="M16.35 18.62c0.14,-1.85 -5.11,-1.19 -6.19,-1.14 -2.54,0.11 -4.96,-0.19 -7.43,-0.13 -3.9,0.1 -2.86,1.28 -1.53,3.63 0.91,1.62 1.87,3.22 2.81,4.82 0.85,1.44 1.9,3.54 2.89,4.79 1.77,2.23 3.12,-0.81 3.89,-2.2 0.74,-1.31 5.51,-9.06 5.56,-9.77z"/>
   </g>
   <path class="fil1" d="M50.84 32.57l0 -1.77c0,-4.7 -2.65,-8.01 -7.51,-8.01 -4.82,0 -7.57,3.09 -7.57,8.01l0 2.34c0,6.21 4.48,7.91 7.64,7.91 2.84,0 4.07,-0.15 6.12,-0.53 0.56,-0.1 0.66,-0.32 0.66,-0.82l0 -2.08c0,-0.32 -0.25,-0.48 -0.57,-0.48 -0.03,0 -0.06,0 -0.09,0 -1.33,0.13 -3.5,0.32 -5.81,0.32 -3.03,0 -3.78,-2.18 -3.78,-4.01l0 -0.09 10.28 0c0.44,0 0.63,-0.29 0.63,-0.79zm-4.19 -2.18l-6.69 0 0 -0.12c0,-2.5 1.42,-3.88 3.37,-3.88 1.96,0 3.32,1.42 3.32,3.88l0 0.12zm21.14 2.75l0 -2.43c0,-4.92 -2.46,-7.92 -7.53,-7.92 -0.76,0 -1.87,0.06 -3.03,0.22l0 -5.58c0,-0.35 -0.29,-0.63 -0.63,-0.63l-2.91 0c-0.34,0 -0.63,0.28 -0.63,0.63l0 21.95c0,0.48 0.13,0.66 0.85,0.85 1.96,0.51 4.33,0.82 6.35,0.82 5.07,0 7.53,-2.99 7.53,-7.91zm-4.16 0c0,2.58 -0.66,4.51 -3.37,4.51 -1.14,0 -2.43,-0.1 -3.03,-0.22l0 -11.01c0.88,-0.13 2.27,-0.22 3.03,-0.22 2.71,0 3.37,1.92 3.37,4.51l0 2.43zm18.25 2.99c0,-1.61 -0.38,-3.18 -3.03,-4.79l-4.13 -2.53c-0.79,-0.47 -1.27,-0.78 -1.27,-1.29 0,-0.98 0.67,-1.32 2.18,-1.32 1.8,0 4.32,0.25 5.21,0.38 0.03,0 0.06,0 0.12,0 0.32,0 0.51,-0.23 0.51,-0.6l0 -1.83c0,-0.38 -0.19,-0.63 -0.57,-0.73 -1.61,-0.35 -3.06,-0.63 -5.62,-0.63 -4,0 -5.99,1.58 -5.99,4.73 0,1.83 1.11,3.41 2.65,4.35l4.32 2.65c1.01,0.64 1.39,1.01 1.39,1.61 0,0.85 -0.28,1.52 -2.24,1.52 -0.95,0 -3.78,-0.16 -5.3,-0.35 -0.03,0 -0.06,0 -0.13,0 -0.31,0 -0.53,0.25 -0.53,0.51l0 1.89c0,0.38 0.22,0.63 0.6,0.72 1.76,0.48 4.41,0.63 5.64,0.63 4.14,0 6.19,-2.17 6.19,-4.92zm11.75 4.14l0 -1.99c0,-0.32 -0.26,-0.47 -0.67,-0.47l-1.67 0c-1.13,0 -1.23,-0.19 -1.23,-1.77l0 -9.91 2.84 0c0.35,0 0.63,-0.28 0.63,-0.63l0 -1.86c0,-0.35 -0.28,-0.63 -0.63,-0.63l-2.84 0 0 -3.25c0,-0.31 -0.22,-0.47 -0.5,-0.47 -0.04,0 -0.1,0 -0.13,0l-2.93 0.5c-0.35,0.07 -0.63,0.29 -0.63,0.63l0 2.59 -2.97 0c-0.35,0 -0.63,0.28 -0.63,0.63l0 1.42c0,0.35 0.28,0.57 0.63,0.63l2.97 0.44 0 9.91c0,4.23 1.45,5.01 5.01,5.01 0.7,0 1.39,-0.09 2.15,-0.22 0.41,-0.06 0.6,-0.25 0.6,-0.56zm15.72 -7.07l0 -2.56c0,-4.51 -2.59,-7.85 -7.54,-7.85 -4.95,0 -7.54,3.34 -7.54,7.85l0 2.56c0,4.51 2.59,7.85 7.54,7.85 4.95,0 7.54,-3.34 7.54,-7.85zm-4.17 0c0,2.59 -1.16,4.26 -3.37,4.26 -2.21,0 -3.38,-1.67 -3.38,-4.26l0 -2.56c0,-2.58 1.17,-4.25 3.38,-4.25 2.21,0 3.37,1.67 3.37,4.25l0 2.56zm15.54 -7.51l0 -2.27c0,-0.35 -0.29,-0.63 -0.63,-0.63 -1.26,0 -2.97,0.32 -4.51,1.51l0 -0.66c0,-0.35 -0.29,-0.63 -0.63,-0.63l-2.75 0c-0.35,0 -0.63,0.28 -0.63,0.63l0 16.5c0,0.35 0.28,0.66 0.63,0.66l2.9 0c0.35,0 0.63,-0.31 0.63,-0.66l0 -12.68c1.33,-0.7 2.65,-1.14 4.36,-1.14 0.34,0 0.63,-0.28 0.63,-0.63l0 0zm15.28 6.88l0 -1.77c0,-4.7 -2.65,-8.01 -7.51,-8.01 -4.82,0 -7.57,3.09 -7.57,8.01l0 2.34c0,6.21 4.48,7.91 7.64,7.91 2.83,0 4.06,-0.15 6.11,-0.53 0.57,-0.1 0.67,-0.32 0.67,-0.82l0 -2.08c0,-0.32 -0.25,-0.48 -0.57,-0.48 -0.03,0 -0.06,0 -0.1,0 -1.32,0.13 -3.5,0.32 -5.8,0.32 -3.03,0 -3.78,-2.18 -3.78,-4.01l0 -0.09 10.28 0c0.44,0 0.63,-0.29 0.63,-0.79zm-4.2 -2.18l-6.68 0 0 -0.12c0,-2.5 1.42,-3.88 3.37,-3.88 1.96,0 3.31,1.42 3.31,3.88l0 0.12z"/>
  </g>
 </g>
</svg>
